<svg id="_2-1" data-name="2-1" xmlns="http://www.w3.org/2000/svg" xmlns:xlink="http://www.w3.org/1999/xlink" width="930.5" height="122" viewBox="0 0 930.5 122">
  <defs>
    <style>
      .cls-1 {
        fill: #333;
      }

      .cls-1, .cls-2, .cls-3, .cls-4 {
        fill-rule: evenodd;
      }

      .cls-2 {
        fill: #55c41e;
      }

      .cls-3 {
        fill: url(#linear-gradient);
      }

      .cls-4 {
        fill: url(#linear-gradient-2);
      }
    </style>
    <linearGradient id="linear-gradient" x1="2672" y1="700" x2="2672" y2="578" gradientUnits="userSpaceOnUse">
      <stop offset="0" stop-color="#00b141"/>
      <stop offset="1" stop-color="#5fc61b"/>
    </linearGradient>
    <linearGradient id="linear-gradient-2" x1="2721.97" x2="2721.97" xlink:href="#linear-gradient"/>
  </defs>
  <path id="越读数字资产管理系统_拷贝" data-name="越读数字资产管理系统 拷贝" class="cls-1" d="M2905.27,653.608a1.526,1.526,0,0,0,.66.2,2.808,2.808,0,0,0,1.78-1.386q2.31-3.1,5.87-9.042l0.73-1.122a2.058,2.058,0,0,0,.26-0.924l1.52,3.828a66.309,66.309,0,0,1-7.46,7.854,1.237,1.237,0,0,0-.52.858c0,0.309.26,0.462,0.79,0.462a3.3,3.3,0,0,0,.99-0.2,23.314,23.314,0,0,0,8.31-4.686,26.419,26.419,0,0,0,3.47,4.785,16.911,16.911,0,0,0,4.26,3.465,5.509,5.509,0,0,0,2.17.726,1.514,1.514,0,0,0,1.49-.924,6.378,6.378,0,0,0,.43-2.64q0-1.054-.27-3.564c-0.04-.307-0.08-0.66-0.13-1.056s-0.09-.858-0.13-1.386q-0.195-2.507-.66-5.346a0.48,0.48,0,0,0-.53-0.462,0.468,0.468,0,0,0-.46.33q-0.27.661-.66,1.98c-0.26.837-.53,1.563-0.79,2.178a2.021,2.021,0,0,1-1.12.924,1.071,1.071,0,0,1-.8-0.594,10.62,10.62,0,0,1-1.98-3.1,91.134,91.134,0,0,0,5.28-8.382,3.71,3.71,0,0,0,.6-1.584,2.27,2.27,0,0,0-.46-1.254,9.682,9.682,0,0,0-4.16-3.234,5.231,5.231,0,0,0-.73-0.264q-0.66,0-.66,1.254a17.936,17.936,0,0,1-1.32,5.808,17.338,17.338,0,0,1-.99,2.178,71.051,71.051,0,0,1-3.03-9.966,64.438,64.438,0,0,1,7.78-1.056,0.858,0.858,0,0,0,.8-0.858,4.183,4.183,0,0,0-.14-0.66,5.048,5.048,0,0,0-1.22-1.914,8.3,8.3,0,0,0-1.81-1.452,1.912,1.912,0,0,0-.86-0.2,8.421,8.421,0,0,0-1.91.4l-3.7,1.188-0.66-2.838q-0.465-2.308-.79-5.742a3.668,3.668,0,0,0-.5-1.782,2.556,2.556,0,0,0-1.28-.99,9.041,9.041,0,0,0-2.45-.957,19.48,19.48,0,0,0-2.77-.5,0.612,0.612,0,0,0-.72.66,2.427,2.427,0,0,0,.33,1.188q0.12,0.4.66,2.112,0.525,1.717,1.05,4.026,0.8,3.762,1.45,6.468l-2.11.528a8.832,8.832,0,0,0-5.21-1.254c-0.66,0-.99.243-0.99,0.726a2.007,2.007,0,0,0,.13.594,15.7,15.7,0,0,1,.99,4.422q0.27,2.245.33,3.96a4.421,4.421,0,0,0-.46-0.99,9.974,9.974,0,0,0-1.98-2.376,3.169,3.169,0,0,0-1.98-.726,8.279,8.279,0,0,0-1.06.132,16.791,16.791,0,0,1-1.98.462l0.07-3.894q2.64-.262,3.69-0.264a1.127,1.127,0,0,0,.96-0.4,1.485,1.485,0,0,0,.3-0.924,2.565,2.565,0,0,0-.13-0.726,8.11,8.11,0,0,0-.83-1.518,5.282,5.282,0,0,0-1.15-1.122,7.985,7.985,0,0,0-1.16-.792,2.678,2.678,0,0,0-1.42-.2l0.2-2.508a41.18,41.18,0,0,1,.66-4.884,6.855,6.855,0,0,0,.26-1.518c0-1.011-.26-1.605-0.79-1.782a13.834,13.834,0,0,0-3.73-1.386,22.106,22.106,0,0,0-5.31-.594c-1.01,0-1.52.264-1.52,0.792a1.257,1.257,0,0,0,.27.594,16.735,16.735,0,0,1,1.91,8.382l0.13,4.686c-3.52.617-6.44,1.013-8.78,1.188-0.83.045-1.25,0.353-1.25,0.924a1.59,1.59,0,0,0,.2.66q2.37,3.5,5.21,3.5a7.634,7.634,0,0,0,1.12-.132q1.125-.2,3.57-0.726v4.224A79.822,79.822,0,0,1,2874.31,635a0.911,0.911,0,0,0-.72.3,1.087,1.087,0,0,0-.27.759,1.2,1.2,0,0,0,.2.594q2.445,4.226,5.41,4.224a5.084,5.084,0,0,0,1.46-.2q4.02-1.121,7.85-1.848v0.462a61.494,61.494,0,0,1,.46,8.316q0,2.772-.06,4.29l-2.25-.924,1.06-2.574a3.5,3.5,0,0,0,.33-1.584,2.77,2.77,0,0,0-.23-1.155,1.445,1.445,0,0,0-.63-0.693,14.052,14.052,0,0,0-6.4-2.112,1.076,1.076,0,0,0-1.02.5,2.953,2.953,0,0,0-.24,1.617,25.316,25.316,0,0,1-2.44,10.989,44.149,44.149,0,0,1-6.2,10.461,2.286,2.286,0,0,0-.53,1.056c0,0.264.2,0.4,0.59,0.4a3.2,3.2,0,0,0,1.39-.4,26.159,26.159,0,0,0,8.12-5.115,18.287,18.287,0,0,0,4.55-7.029q2.505,1.386,7.13,4.158,6.87,4.158,11.95,6.666a60.982,60.982,0,0,0,12.21,4.29,9.09,9.09,0,0,0,2.04.33,8.413,8.413,0,0,0,2.38-.528,46.5,46.5,0,0,0,6.47-3.135,23.15,23.15,0,0,0,4.42-3.135,3.174,3.174,0,0,0,1.05-1.452c0-.352-0.39-0.528-1.18-0.528-3.57-.088-6.81-0.253-9.74-0.5a68.759,68.759,0,0,1-8.48-1.221,110.666,110.666,0,0,1-16.96-5.478v-0.132q0.135-4.356.33-6.2a39.6,39.6,0,0,1,5.08-.264,5.956,5.956,0,0,0,.26.924,9.358,9.358,0,0,0,1.52,2.409,10.723,10.723,0,0,0,2.05,2.079h0Zm-13.73-15.378a74.307,74.307,0,0,1,10.63-.594,1.318,1.318,0,0,0,1.32-1.056l0.06,2.244a17.727,17.727,0,0,1-.86,6.2,7.509,7.509,0,0,0-1.51-2.376,3.249,3.249,0,0,0-2.25-1.122,4.835,4.835,0,0,0-1.25.2l-0.53.2,0.13-.33a1.535,1.535,0,0,0,.07-0.528,1.607,1.607,0,0,0-1.06-1.452,11.956,11.956,0,0,0-4.75-1.386h0Zm17.42,3.1v-3.366q0-4.421.14-6.666a19.445,19.445,0,0,1,2.24-.66q1.65,6.138,3.04,9.966a1.117,1.117,0,0,0-.99.264,12.159,12.159,0,0,1-2.02,1.353,4.276,4.276,0,0,1-1.61.627c-0.53,0-.8-0.5-0.8-1.518h0Zm8.06-25.344a28.941,28.941,0,0,1,2.87,3.069c0.99,1.211,1.68,2.124,2.08,2.739q0.915,1.519,1.71,1.518a1.624,1.624,0,0,0,1.26-.924,6.19,6.19,0,0,0,1.25-3.366,3.466,3.466,0,0,0-2.11-3.168,11.191,11.191,0,0,0-5.28-1.122q-2.31,0-2.31.594a0.6,0.6,0,0,0,.23.363q0.225,0.232.3,0.3h0Zm32.27,47.058a2.085,2.085,0,0,0,1.12.33,2.239,2.239,0,0,0,1.98-1.122,68.507,68.507,0,0,0,3.96-6.27q1.515-2.772,3.63-7.326a8.471,8.471,0,0,0,1.92,3.1,5.614,5.614,0,0,0,4.29,2.178,5.046,5.046,0,0,0,1.32-.132q1.65-.4,5.08-0.924a29.316,29.316,0,0,1-6.57,8.349,54.635,54.635,0,0,1-9.6,6.7,0.348,0.348,0,0,0-.1.561,0.83,0.83,0,0,0,.76.363h0.13a31.9,31.9,0,0,0,12.44-4.257,27.407,27.407,0,0,0,9.27-9.009c2.56,2.289,4.84,4.412,6.87,6.369a28.242,28.242,0,0,1,4.55,5.445c1.06,1.716,1.98,2.574,2.77,2.574a2.321,2.321,0,0,0,1.72-1.056,8.176,8.176,0,0,0,2.51-5.544c0-2.112-1.15-3.894-3.43-5.346a21.985,21.985,0,0,0-6.83-2.772,26.88,26.88,0,0,0-7.43-.924q1.05-1.98,1.32-2.574,10.62-1.253,15.44-1.386a6.764,6.764,0,0,0,2.71-.462,0.963,0.963,0,0,0,.4-1.32,9.108,9.108,0,0,0-1.79-3.069,9.642,9.642,0,0,0-2.64-2.145,5.23,5.23,0,0,0-2.24-.462,5.781,5.781,0,0,0-1.52.2,70.775,70.775,0,0,1-8.31,1.65q0.255-1.451.33-2.178c0.08-.571.17-1.254,0.26-2.046,0.22-1.627.4-2.793,0.53-3.5a4.951,4.951,0,0,0,.06-0.858,2.2,2.2,0,0,0-1.38-2.112,13.956,13.956,0,0,0-5.02-1.254,84.79,84.79,0,0,1,10.43-1.188q0.99-.2.99,0.4a0.659,0.659,0,0,1-.07.33,12.939,12.939,0,0,1-2.24,4.29,0.5,0.5,0,0,0,0,.594,0.6,0.6,0,0,0,.53.33h0.13c0.35-.132,1.18-0.462,2.48-0.99s2.76-1.066,4.38-1.617,3.22-1,4.76-1.353q1.65-.263,1.65-1.452a3.017,3.017,0,0,0-.53-1.617c-0.35-.549-0.82-1.2-1.39-1.947a13.752,13.752,0,0,0-3-2.64,13.283,13.283,0,0,0-3.66-1.914,1.8,1.8,0,0,0-.53-0.066,3.513,3.513,0,0,0-1.12.231,8.5,8.5,0,0,0-1.26.561,12.992,12.992,0,0,1-1.91.858q-1.395.4-6.73,1.32c0.08-2.023.17-3.475,0.26-4.356a60.2,60.2,0,0,1,7.92-.858,4.175,4.175,0,0,0,2.21-.561,1.111,1.111,0,0,0,.43-1.353,7.1,7.1,0,0,0-1.29-2.442,7.762,7.762,0,0,0-1.94-1.782,3.616,3.616,0,0,0-1.98-.594,1.882,1.882,0,0,0-.86.2c-0.93.353-2.22,0.771-3.9,1.254a27.194,27.194,0,0,1,.6-3.5,5.793,5.793,0,0,0,.26-1.65,2.176,2.176,0,0,0-1.05-1.848,8.241,8.241,0,0,0-2.54-1.122,27.739,27.739,0,0,0-4.2-.66c-1.62-.132-2.44.2-2.44,0.99a1.787,1.787,0,0,0,.2.792,9.952,9.952,0,0,1,.69,2.376,25.924,25.924,0,0,1,.23,2.772c0.09,1.233.14,2.421,0.14,3.564q-5.49.925-7.92,1.056a1.01,1.01,0,0,0-1.13.924,2.592,2.592,0,0,0,.2.792c0.18,0.309.43,0.726,0.76,1.254s0.61,0.947.83,1.254a3.191,3.191,0,0,0,2.9,1.32,6.417,6.417,0,0,0,1.58-.2q2.52-.594,2.97-0.66l0.07,4.092a125.327,125.327,0,0,1-13.93,1.254,0.612,0.612,0,0,0-.72.66l0.13,0.528a9.273,9.273,0,0,0,1.39,2.343,6.323,6.323,0,0,0,1.84,1.749,4.231,4.231,0,0,0,2.51.858,3.749,3.749,0,0,0,1.19-.2,84.277,84.277,0,0,1,8.78-1.848,1.394,1.394,0,0,0,.2,1.188,12.267,12.267,0,0,1,.79,5.016,23.788,23.788,0,0,1-.2,3.036c-0.09.881-.26,1.98-0.53,3.3-1.71.264-3.43,0.462-5.15,0.594a4.324,4.324,0,0,0,1.39-1.32,2.534,2.534,0,0,0,.46-1.65,3.4,3.4,0,0,0-2.34-2.772,11.812,11.812,0,0,0-4.72-.924l-1.06.066a0.631,0.631,0,0,0-.72.594,1.3,1.3,0,0,0,.53.99,15.235,15.235,0,0,1,2.11,2.277,19.07,19.07,0,0,1,1.58,2.871l0.13,0.2-6.66.594h-0.2l1.06-2.244a0.823,0.823,0,0,0,.03-0.594,0.369,0.369,0,0,0-.36-0.264,0.734,0.734,0,0,0-.47.264c-0.48.485-1.29,1.211-2.44,2.178l-2.24,1.914a0.373,0.373,0,0,1-.36.066,0.314,0.314,0,0,1-.17-0.33v-0.066l0.2-1.716q0.795-7.722,1.05-9.042a8.444,8.444,0,0,1,1.39-3.63,2.557,2.557,0,0,0,.66-1.386,2.4,2.4,0,0,0-.86-1.584,13.445,13.445,0,0,0-4.68-3.234,3.424,3.424,0,0,0-1.06-.2,2.28,2.28,0,0,0-1.58.528,25.183,25.183,0,0,1-5.15,2.409,36.491,36.491,0,0,1-6.87,1.881,0.8,0.8,0,0,0-.92.792,1.934,1.934,0,0,0,.4,1.056,13.6,13.6,0,0,0,1.58,1.947,6.651,6.651,0,0,0,1.72,1.353,2.19,2.19,0,0,0,1.12.264,3.721,3.721,0,0,0,1.85-.528,33,33,0,0,1,4.62-1.716q0.39-.065.39,0.594a79.01,79.01,0,0,1-.53,8.283,86.694,86.694,0,0,1-1.32,8.745,4.6,4.6,0,0,1-.95,2.079,5.6,5.6,0,0,1-1.95,1.419,1.33,1.33,0,0,0-.92,1.122,1.9,1.9,0,0,0,.66,1.32,21.663,21.663,0,0,0,2.34,2.112,28.545,28.545,0,0,0,2.54,1.848h0Zm-1.32-51.084a52.885,52.885,0,0,0,5.02,10.362,1.931,1.931,0,0,0,1.65.792,2.018,2.018,0,0,0,.92-0.2,6.609,6.609,0,0,0,3.63-6.336,4.5,4.5,0,0,0-2.84-4.521,20.191,20.191,0,0,0-7.79-1.221,0.612,0.612,0,0,0-.72.66,2.438,2.438,0,0,0,.13.462h0Zm19.21,24.156q2.505,3.038,3.82,4.356a1.843,1.843,0,0,0,1.32.594,0.678,0.678,0,0,0,.33-0.066,3.951,3.951,0,0,0,1.52-1.155,3.164,3.164,0,0,0,.53-1.947,2.375,2.375,0,0,0-1.39-2.244,7.486,7.486,0,0,0-3.49-.726,10.828,10.828,0,0,0-2.12.2,0.6,0.6,0,0,0-.66.594,1.017,1.017,0,0,0,.14.4h0Zm42.04,33.726q10.89-2.97,16.83-8.448a21.819,21.819,0,0,1,2.44,2.112,11.69,11.69,0,0,0,1.29,1.254,1.5,1.5,0,0,0,.95.33,2.212,2.212,0,0,0,.99-0.264,3.114,3.114,0,0,0,1.32-1.584,6.12,6.12,0,0,0,.66-2.772,4.563,4.563,0,0,0-1.91-3.828l-1.12-.792a35.037,35.037,0,0,0,4.29-9.768,8.706,8.706,0,0,1,.43-1.122,2.694,2.694,0,0,0,.29-1.056,1.549,1.549,0,0,0-.59-1.188,11.449,11.449,0,0,0-2.61-1.914,6.179,6.179,0,0,0-3-.858,1.15,1.15,0,0,0-.86.231,1.057,1.057,0,0,0-.2.693,7.929,7.929,0,0,0,.14,1.188l-1.19.264-1.85.33a5.944,5.944,0,0,0,.26-1.122,1.268,1.268,0,0,0-.59-0.99,27.073,27.073,0,0,0-2.64-1.716,12.631,12.631,0,0,0-3.1-1.122c-0.75-.175-1.12.045-1.12,0.66a20.72,20.72,0,0,1-.73,5.478l-8.38,1.188c-1.19.132-1.78,0.441-1.78,0.924a1.552,1.552,0,0,0,.19.66,13.5,13.5,0,0,0,1.69,2.376,6.536,6.536,0,0,0,1.61,1.386,3.706,3.706,0,0,0,.73.132,7.95,7.95,0,0,0,2.11-.462l1.78-.462a26.607,26.607,0,0,1-1.25,2.772,2.292,2.292,0,0,0-.26,1.056,2.437,2.437,0,0,0,1.38,2.046,58.112,58.112,0,0,1,6.01,2.97,51.8,51.8,0,0,1-6.21,5.742,57.52,57.52,0,0,1-6.99,4.752,0.9,0.9,0,0,0-.53.594,0.381,0.381,0,0,0,.26.264,1.348,1.348,0,0,0,.6.132,2.824,2.824,0,0,0,.66-0.066h0Zm-2.97-27.984c-0.18.132-.21,0.264-0.1,0.4a0.6,0.6,0,0,0,.49.2h0.2a23.334,23.334,0,0,0,7.96-3.96,19.184,19.184,0,0,0,6.23-7.326,17.825,17.825,0,0,1-.39,3.564,4.538,4.538,0,0,0-.27,1.452,1.24,1.24,0,0,0,.07.528,5.844,5.844,0,0,0,1.75,1.683,4.449,4.449,0,0,0,2.54.891,2.139,2.139,0,0,0,1.85-1.419,7.271,7.271,0,0,0,.72-3.333l-0.06-3.96c0.08,0.089,1.03,1.167,2.83,3.234,1.24,1.409,2.07,2.333,2.51,2.772a1.9,1.9,0,0,0,1.32.66,1.53,1.53,0,0,0,1.32-.99,6.434,6.434,0,0,0,.6-2.706,9.225,9.225,0,0,0,.13-1.122,2.354,2.354,0,0,0-.56-1.617,7.835,7.835,0,0,0-2.08-1.419,15.023,15.023,0,0,0-6.07-1.98V627.34l2.11-.264a30.073,30.073,0,0,1,4.09-.264c1.01,0,1.83-.021,2.44-0.066,1.15-.043,1.72-0.4,1.72-1.056a2.236,2.236,0,0,0-.2-0.858,9.951,9.951,0,0,0-2.71-3.432,1.823,1.823,0,0,0-1.12-.264,16.83,16.83,0,0,0-2.7.4l-1.39.264-0.99.2a32.649,32.649,0,0,0,7.79-5.412,21.4,21.4,0,0,0,1.55-1.683,1.977,1.977,0,0,0,.49-1.221,1.207,1.207,0,0,0-.26-0.792,12.868,12.868,0,0,0-2.9-1.716,12.059,12.059,0,0,0-3.5-.99q-0.99-.13-0.99.33a0.96,0.96,0,0,0,.13.4,2.728,2.728,0,0,1,.26,1.254,9.2,9.2,0,0,1-.95,3.63,52.963,52.963,0,0,1-2.68,5.016l0.33-7.194c0.05-.219.1-0.594,0.17-1.122a10.624,10.624,0,0,0,.1-1.386,1.882,1.882,0,0,0-.46-1.452,7.027,7.027,0,0,0-3.11-1.749,14.116,14.116,0,0,0-4.15-.627,0.643,0.643,0,0,0-.73.726,1.59,1.59,0,0,0,.2.66,6.786,6.786,0,0,1,.82,2.574,19.034,19.034,0,0,1,.3,3.1l0.13,9.108c-0.53.089-1.49,0.243-2.9,0.462-1.45.177-3.07,0.33-4.85,0.462s-3.14.2-4.06,0.2c-0.75,0-1.12.243-1.12,0.726a2.438,2.438,0,0,0,.13.462,11.986,11.986,0,0,0,1.75,2.475,4.855,4.855,0,0,0,1.88,1.353,4.049,4.049,0,0,0,1.38.33,2.288,2.288,0,0,0,.73-0.132,23.793,23.793,0,0,1,2.64-.66,29.555,29.555,0,0,1-4.55,6.963,46.224,46.224,0,0,1-5.81,5.775h0Zm4.29-27.126a45.09,45.09,0,0,1,4.49,7.788,0.911,0.911,0,0,0,.43.429,1.361,1.361,0,0,0,.75.231,0.933,0.933,0,0,0,.53-0.132,7.345,7.345,0,0,0,2.31-1.881,3.646,3.646,0,0,0,.86-2.277c0-1.32-.84-2.442-2.51-3.366a10.8,10.8,0,0,0-3.03-1.386,11.4,11.4,0,0,0-3.17-.528c-0.66,0-.99.155-0.99,0.462a1.454,1.454,0,0,0,.33.66h0Zm10.29,37.818,0.86-1.518,1.65-3.036c1.76-.307,3.32-0.549,4.69-0.726a25.15,25.15,0,0,1-2.84,6.27c-0.92-.264-2.38-0.594-4.36-0.99h0Zm8.85,14.85c-0.18.132-.14,0.286,0.1,0.462a1.257,1.257,0,0,0,.76.264h0.13a25.537,25.537,0,0,0,9.47-3.168,29.966,29.966,0,0,0,7.82-6.468c1.06,1.716,2.24,3.5,3.56,5.346,0.8,1.144,1.38,1.936,1.75,2.376a4.321,4.321,0,0,0,1.36,1.056,4.546,4.546,0,0,0,2.04.4q3.7,0,10.3-2.376a1.2,1.2,0,0,0,.92-0.924,1.078,1.078,0,0,0-.66-0.726,53.034,53.034,0,0,1-14.65-12.012,44,44,0,0,0,4.36-13.068c0.08-.351.22-0.813,0.39-1.386a4.864,4.864,0,0,0,.27-1.386,1.494,1.494,0,0,0-.33-0.99,4.56,4.56,0,0,0-2.64-1.914,17.848,17.848,0,0,0-4.56-1.122,1.086,1.086,0,0,0-.76.2,0.83,0.83,0,0,0-.43.726l0.07,0.264a5.3,5.3,0,0,1,.2,1.782,30.96,30.96,0,0,1-.43,4.686,47.71,47.71,0,0,1-1.16,5.412q-2.37-3.695-5.47-9.768c0.48-.615.96-1.3,1.45-2.046h0.33a39.668,39.668,0,0,1,6.24-1.419q3.33-.495,8.54-1.155,4.23-.526,4.89-0.66a1.318,1.318,0,0,0,.85-0.429,1.273,1.273,0,0,0,.33-0.891,3.458,3.458,0,0,0-.13-0.726,5.615,5.615,0,0,0-.86-1.683c-0.48-.726-0.99-1.419-1.51-2.079a2.338,2.338,0,0,0-1.79-.924,5.692,5.692,0,0,0-1.71.4,38.358,38.358,0,0,1-4.75,1.485c-2.12.551-4.38,1.068-6.8,1.551q0.99-2.376,2.44-7.062a29.95,29.95,0,0,1,1.06-3.168,7.712,7.712,0,0,0,.99-2.772,2.864,2.864,0,0,0-1.39-2.112,11.32,11.32,0,0,0-2.67-1.65,16.377,16.377,0,0,0-4-1.056,1.947,1.947,0,0,0-1.32.2,0.835,0.835,0,0,0-.52.858,23.94,23.94,0,0,1,.19,3.168,50.133,50.133,0,0,1-2.44,14.289,89.886,89.886,0,0,1-5.21,13.7,0.631,0.631,0,0,0-.1.594,0.456,0.456,0,0,0,.49.33,1.352,1.352,0,0,0,.8-0.4c0.61-.439,1.54-1.188,2.77-2.244q4.02,8.779,6.14,12.87a47.988,47.988,0,0,1-6.11,8.349,37.425,37.425,0,0,1-8.61,7.029h0Zm54.84-13.728q5.085-1.188,13.47-2.508,0.06,1.98.06,4.686,0,2.443-.06,3.894a2,2,0,0,1-.73,1.716,3.531,3.531,0,0,1-1.58.462,20.487,20.487,0,0,1-3.96.264,0.528,0.528,0,0,0-.6.594,0.683,0.683,0,0,0,.47.66,24.481,24.481,0,0,1,3.2,2.442,6.7,6.7,0,0,1,1.61,2.772c0.71,1.8,1.74,2.706,3.11,2.706a3.53,3.53,0,0,0,1.58-.4,7.461,7.461,0,0,0,4.55-6.27,50.6,50.6,0,0,0,.27-6.006c0-1.891-.02-3.3-0.07-4.224l-0.06-4.422q7.98-.923,11.15-0.924c2.95,0,5.1.066,6.47,0.2a4.891,4.891,0,0,0,.92.066c1.37,0,2.05-.439,2.05-1.32a2.236,2.236,0,0,0-.2-0.858,12.683,12.683,0,0,0-3.3-4.884,3.5,3.5,0,0,0-2.38-.66,9.886,9.886,0,0,0-3.43.66,82.975,82.975,0,0,1-10.82,2.046,12.2,12.2,0,0,1,.39-1.419,3.8,3.8,0,0,0,.27-1.155,1.449,1.449,0,0,0-.53-1.122,4.811,4.811,0,0,0-1.91-1.32q3.96-2.178,7.32-3.7c0.97-.351,1.45-0.813,1.45-1.386a3.51,3.51,0,0,0-.46-1.386,13.226,13.226,0,0,0-1.58-2.31,12.078,12.078,0,0,0-2.05-1.98,4.145,4.145,0,0,0-1.98-.924,2.141,2.141,0,0,0-.95.363,7.948,7.948,0,0,1-1.16.561,59.318,59.318,0,0,1-8.41,2.244,32.372,32.372,0,0,1-6.57.4c-0.97-.043-1.45.243-1.45,0.858a1.394,1.394,0,0,0,.19.726,17,17,0,0,0,2.74,3.3,4.042,4.042,0,0,0,2.68,1.122,3.689,3.689,0,0,0,1.18-.2c1.24-.483,2.62-0.967,4.16-1.452l3.04-1.056,2.11-.528-2.9,4.356a9.688,9.688,0,0,0-2.18-.462q-2.64-.13-2.64,1.65a3.118,3.118,0,0,0,.13.99,16.7,16.7,0,0,1,.79,4.884q-5.8.662-11.05,1.122t-7.49.462a1.262,1.262,0,0,0-.93.33,1.164,1.164,0,0,0-.33.858,2.4,2.4,0,0,0,.13.594,13.927,13.927,0,0,0,3.37,4.422,2.913,2.913,0,0,0,1.91.594,5.466,5.466,0,0,0,.99-0.132h0Zm-7.45-23.43a11.226,11.226,0,0,0,1.32,2.145,5.135,5.135,0,0,0,1.51,1.419,2.729,2.729,0,0,0,.93.2,3.1,3.1,0,0,0,1.58-.462,3.941,3.941,0,0,0,1.32-1.254,21.342,21.342,0,0,0,3.3-5.28,2,2,0,0,0,.56-0.066c0.16-.043.3-0.087,0.43-0.132q2.505-.594,10.2-1.617c5.12-.681,8.24-1.089,9.34-1.221l6.27-.792a1.226,1.226,0,0,1,.89.165,0.751,0.751,0,0,1,.3.627,0.967,0.967,0,0,1-.07.4,14.462,14.462,0,0,1-2.11,2.64q-0.27.332-.99,1.155a10.837,10.837,0,0,0-1.06,1.353,0.435,0.435,0,0,0-.03.528,0.6,0.6,0,0,0,.49.2h0.2q3.57-1.318,13.73-3.762a1.77,1.77,0,0,0,1.72-1.782,4.475,4.475,0,0,0-.73-2.211,10.026,10.026,0,0,0-1.52-2.013q-4.095-3.893-6.93-4.686a2.852,2.852,0,0,0-1.25.165,10.32,10.32,0,0,0-1.59.759q-1.9.859-2.31,0.99a72.3,72.3,0,0,1-8.84,1.518,6.572,6.572,0,0,0,1.95-1.98,4.458,4.458,0,0,0,.69-2.376q0-2.7-3.3-4.818a13.709,13.709,0,0,0-3.7-1.683,14.331,14.331,0,0,0-4.09-.627c-0.97,0-1.45.287-1.45,0.858a0.918,0.918,0,0,0,.2.66q1.905,2.905,3.23,5.247a48.446,48.446,0,0,1,2.44,4.983,0.926,0.926,0,0,0,.27.33l-2.91.4-7.72.924a3.278,3.278,0,0,0-.59-1.518,13.95,13.95,0,0,0-3.37-3.1,3.723,3.723,0,0,0-1.58-.594,0.7,0.7,0,0,0-.73.66,17.455,17.455,0,0,1-1.85,6.138q-1.575,3.235-2.97,4.092a3.017,3.017,0,0,0-1.58,2.244,2.313,2.313,0,0,0,.4,1.188h0Zm80.05-1.188a25.538,25.538,0,0,0,11.03-7.854c0.17,0.089.37,0.188,0.59,0.3a4.376,4.376,0,0,0,.79.3l-0.2.792a25.381,25.381,0,0,1-5.04,8.349,41.8,41.8,0,0,1-8.29,6.7,1.073,1.073,0,0,0-.66.792,0.641,0.641,0,0,0,.53.462c-1.06-.087-2.02-0.132-2.9-0.132a1.42,1.42,0,0,0-.89.2,0.812,0.812,0,0,0-.24.66,3.317,3.317,0,0,0,.07.726,25.507,25.507,0,0,1,.73,6.6,34.392,34.392,0,0,1-.73,7.326,3.733,3.733,0,0,0-.07.792,4.241,4.241,0,0,0,1.59,3.3,4.823,4.823,0,0,0,3.17,1.386,2.422,2.422,0,0,0,2.31-1.518,12.161,12.161,0,0,0,.72-4.884,64.116,64.116,0,0,1,.46-8.316,11.783,11.783,0,0,0,1.79,0q6.465-1.054,10.42-1.518a1.756,1.756,0,0,1,.99.132,0.8,0.8,0,0,1,.47.594c0.08,1.848.13,3.036,0.13,3.564,0,1.056-.13,2.817-0.4,5.28a3.761,3.761,0,0,0,.66,2.673A6.831,6.831,0,0,0,3176,657.7a1.922,1.922,0,0,0,1.25.33,4.508,4.508,0,0,0,2.81-1.056,4.187,4.187,0,0,0,1.62-2.706,28.1,28.1,0,0,0,.19-3.168q0-1.516-.06-2.178,0-.526-0.03-1.287a13.145,13.145,0,0,1,.03-1.749,9.071,9.071,0,0,1,.86-3.96,4.952,4.952,0,0,0,.26-0.99,1.951,1.951,0,0,0-.99-1.452,19.162,19.162,0,0,0-2.77-1.848,10.876,10.876,0,0,0-2.84-.99,2.345,2.345,0,0,0-.73-0.132,3.21,3.21,0,0,0-1.65.528,21.912,21.912,0,0,1-5.64,1.716,84.419,84.419,0,0,1-8.55,1.386,7.3,7.3,0,0,0-3.16-1.122,0.7,0.7,0,0,1,.33-0.066,31.549,31.549,0,0,0,16.17-8.316,48.663,48.663,0,0,0,9.3,7.392,5.435,5.435,0,0,0,2.51.858,7.061,7.061,0,0,0,1.58-.2,8.074,8.074,0,0,0,2.48-1.023c0.95-.549,1.48-0.868,1.62-0.957l2.04-1.122q1.26-.659,1.26-1.122a0.7,0.7,0,0,0-.53-0.5,14.015,14.015,0,0,0-1.39-.5q-2.175-.527-3.63-1.023c-0.97-.33-1.93-0.693-2.9-1.089-0.27-.132-0.75-0.33-1.45-0.594a32.33,32.33,0,0,1-3.77-1.848c-1.32-.747-2.13-1.209-2.44-1.386l-1.32-.726,0.93-1.386a2.526,2.526,0,0,0,.59-1.452,2.131,2.131,0,0,0-1.19-1.584,9.683,9.683,0,0,0-3.17-1.452c1.37-.4,2.73-0.769,4.1-1.122s2.2-.549,2.5-0.594,0.47,0.045.47,0.264a2.1,2.1,0,0,1-.14.594c-0.08.264-.15,0.462-0.19,0.594l-1.39,3.234a0.662,0.662,0,0,0,.03.726,0.89,0.89,0,0,0,.7.264,1.852,1.852,0,0,0,.92-0.264l2.05-1.122c0.3-.175,1.14-0.627,2.5-1.353a25.631,25.631,0,0,1,3.17-1.485,1.665,1.665,0,0,0,1.19-1.65,3.66,3.66,0,0,0-.49-1.716,4.992,4.992,0,0,0-1.03-1.386,28.536,28.536,0,0,0-2.87-1.881,6.071,6.071,0,0,0-2.8-1.023,2.375,2.375,0,0,0-.93.231q-0.525.232-.72,0.3a6.876,6.876,0,0,1-1.52.66c-0.66.221-1.73,0.551-3.2,0.99s-2.94.837-4.39,1.188q0.39-.594,1.71-2.9c0.14-.264.33-0.6,0.6-1.023a2.219,2.219,0,0,0,.39-1.155,2.312,2.312,0,0,0-.13-0.858q-0.465-1.714-3.03-3.267a9.223,9.223,0,0,0-4.62-1.551,3.764,3.764,0,0,0-.86.132,0.968,0.968,0,0,0-.6,1.056,6.27,6.27,0,0,0,.1,1.056,5.409,5.409,0,0,1,.1,1.056,22.351,22.351,0,0,1-2.18,8.448,42.075,42.075,0,0,1-6.86,10.56q1.38-3.034,2.51-6.138a5.39,5.39,0,0,0,.33-1.32c0-.307-0.09-0.462-0.27-0.462a1.852,1.852,0,0,0-.99.66,63.736,63.736,0,0,1-7.78,6.864,5.343,5.343,0,0,1-3.37,1.254,2.261,2.261,0,0,1-.66-0.066,3.888,3.888,0,0,0-1.32-.264c-0.62,0-.99.441-1.12,1.32a16.843,16.843,0,0,0,.53,4.455,19.3,19.3,0,0,0,1.45,4.257,2.4,2.4,0,0,0,1.02.957,3.15,3.15,0,0,0,1.49.363,2.662,2.662,0,0,0,1.84-.792,18,18,0,0,0,2.71-3.729,60.48,60.48,0,0,0,3.17-6.237,0.715,0.715,0,0,0,.53.2,2.14,2.14,0,0,0,.85-0.2h0Zm-12.87-15.444q2.055,1.782,5.28,7.524a2.3,2.3,0,0,0,2.12,1.32,3.742,3.742,0,0,0,1.58-.33,4.272,4.272,0,0,0,1.55-1.551,4.577,4.577,0,0,0,.83-2.607,3.7,3.7,0,0,0-.47-1.782,8.041,8.041,0,0,0-3.99-3.333,15.98,15.98,0,0,0-6.43-1.221q-1.26,0-1.26.66a2.195,2.195,0,0,0,.79,1.32h0ZM3145.44,668a1,1,0,0,0-.79.726,0.6,0.6,0,0,0,.33.528,1.664,1.664,0,0,0,.86.2h0.13a41.821,41.821,0,0,0,13.27-2.145,16.659,16.659,0,0,0,8.38-6.7,59.393,59.393,0,0,1,13.07,9.042,3.572,3.572,0,0,0,2.44,1.452,2.669,2.669,0,0,0,2.04-1.452,8.372,8.372,0,0,0,1.52-4.29q0-3.234-3.96-5.016t-11.42-1.782c-1.1,0-1.95.023-2.57,0.066a27.857,27.857,0,0,0,2.31-7.062,14.238,14.238,0,0,0,.4-2.178,2.473,2.473,0,0,0-.47-1.452,6.393,6.393,0,0,0-2.77-1.98,9.906,9.906,0,0,0-3.96-.858,4.026,4.026,0,0,0-1.42.165,0.574,0.574,0,0,0-.36.561,1.019,1.019,0,0,0,.07.462,6.068,6.068,0,0,1,.39,2.112,15.71,15.71,0,0,1-.53,3.366,19.264,19.264,0,0,1-3.13,7.722,17.559,17.559,0,0,1-5.48,4.917,47.269,47.269,0,0,1-8.35,3.6h0Zm59.6,3.96q6.93-1.716,12.51-8.349t7.29-19.239l0.2-1.452,0.33-2.046q4.62-.792,13.96-1.518t14.09-.726a4.415,4.415,0,0,0,2.47-.528,1.555,1.555,0,0,0,.76-1.32,2.084,2.084,0,0,0-.33-1.122,17.311,17.311,0,0,0-2.18-2.541,15.485,15.485,0,0,0-2.5-2.013,3.639,3.639,0,0,0-2.05-.528,3.551,3.551,0,0,0-1.32.264q-1.515.53-6.2,1.584a21.489,21.489,0,0,0,2.44-1.881q1.05-.956,1.32-1.155a22.979,22.979,0,0,1,1.78-1.518,1.852,1.852,0,0,0,.92-1.518,1.32,1.32,0,0,0-.52-1.122,11.555,11.555,0,0,0-4.43-2.31q4.755-.329,7.59-0.33a5.135,5.135,0,0,0,2.68-.528,1.535,1.535,0,0,0,.82-1.32,2.282,2.282,0,0,0-.39-1.056,9.619,9.619,0,0,0-1.88-2.079,20.976,20.976,0,0,0-2.68-1.815,4.4,4.4,0,0,0-2.31-.594,5.893,5.893,0,0,0-1.58.264,64.071,64.071,0,0,1-8.71,1.848,6.861,6.861,0,0,0,2.27-2.079,3.9,3.9,0,0,0,.76-2.673c-0.31-2.067-1.72-3.442-4.25-4.125a35.346,35.346,0,0,0-9.08-1.023c-0.4-.043-0.59.023-0.59,0.2a0.566,0.566,0,0,0,.19.4,88.766,88.766,0,0,1,6.21,9.108,3.248,3.248,0,0,0,.99.726q-9.9,1.453-16.04,1.98a0.95,0.95,0,0,0-1.06.99,3.285,3.285,0,0,0,.6,1.683,10.071,10.071,0,0,0,1.52,1.881,5.391,5.391,0,0,0,3.56.924,12.926,12.926,0,0,0,2.11-.2q4.56-.923,14.59-1.848a4.523,4.523,0,0,0-.13,1.122,13.135,13.135,0,0,1-1.46,4.422,20.992,20.992,0,0,1-3.36,4.95l-2.31.264a3.311,3.311,0,0,0,.92-2.178q0-2.178-3.1-3.894a14.961,14.961,0,0,0-3.7-1.353,17.589,17.589,0,0,0-4.02-.5,3.382,3.382,0,0,0-1.16.132,0.474,0.474,0,0,0-.29.462,0.656,0.656,0,0,0,.1.363,0.619,0.619,0,0,1,.09.231q0.405,0.463,2.31,3.366,2.115,3.168,2.84,4.092c-1.8.177-2.95,0.287-3.43,0.33a24.5,24.5,0,0,0-5.94-.726q-1.65,0-1.65.858a2.559,2.559,0,0,0,.4,1.056,11.875,11.875,0,0,1,1.25,3.234,17.61,17.61,0,0,1,.46,4.158,27.707,27.707,0,0,1-2.41,10.692,44.588,44.588,0,0,1-6.13,10.461,25.346,25.346,0,0,1-7.36,6.7c-0.22.132-.18,0.3,0.13,0.5a3.072,3.072,0,0,0,1.58.3,9.834,9.834,0,0,0,2.51-.33h0Zm73.72-26.8a1.815,1.815,0,0,0,1.36-.594,9.91,9.91,0,0,0,1.22-1.716c0.08-.175.34-0.648,0.76-1.419a27.2,27.2,0,0,0,1.41-3.267,2.863,2.863,0,0,0,.63-0.066,5.135,5.135,0,0,0,.5-0.132q2.7-.725,20.92-2.97,7.185-.923,9.24-1.254a1.087,1.087,0,0,1,.79.132,0.615,0.615,0,0,1,.26.528,0.8,0.8,0,0,1-.06.33c-0.18.264-.39,0.584-0.63,0.957s-0.52.825-.82,1.353a0.516,0.516,0,0,0-.04.462,0.379,0.379,0,0,0,.37.2h0.19a62.631,62.631,0,0,1,9.9-3.168c1.02-.219,1.52-0.66,1.52-1.32s-0.66-1.65-1.98-2.97a26.569,26.569,0,0,0-2.77-2.442,8.781,8.781,0,0,0-3.23-1.452,5.993,5.993,0,0,0-.86-0.132,4.792,4.792,0,0,0-1.98.528c-0.75.353-1.32,0.617-1.72,0.792q-1.185.463-12.01,2.178a3.811,3.811,0,0,0,.46-1.848,3.154,3.154,0,0,0-1.45-2.64,12.6,12.6,0,0,0,2.38-1.023,16.879,16.879,0,0,0,2.7-2.013c1.06,0.837,1.99,1.607,2.81,2.31a24.423,24.423,0,0,1,2.27,2.244,1.762,1.762,0,0,0,1.32.66,1.044,1.044,0,0,0,.93-0.4,3.1,3.1,0,0,0,.99-2.376,4.463,4.463,0,0,0-.07-0.924c-0.17-.967-1.1-1.759-2.77-2.376,2.73-.351,4.36-0.571,4.88-0.66a54.786,54.786,0,0,1,6.41-.726,1.029,1.029,0,0,0,1.25-1.056,2.1,2.1,0,0,0-.13-0.792,8.773,8.773,0,0,0-3.1-4.092,2.147,2.147,0,0,0-1.26-.33,7.666,7.666,0,0,0-2.57.528,33.4,33.4,0,0,1-4.49.924,2.065,2.065,0,0,0,.2-0.924,3.22,3.22,0,0,0-.4-1.452,9.338,9.338,0,0,0-2.34-3.036,11.1,11.1,0,0,0-3.6-2.178,1.67,1.67,0,0,0-1.19.2,1.948,1.948,0,0,0-.79,1.452,71.739,71.739,0,0,1-2.14,8.745,19.857,19.857,0,0,1-3.53,6.435,11.476,11.476,0,0,0-1.52-.132,10.142,10.142,0,0,0-3.57.594,0.824,0.824,0,0,0-.66.594,0.9,0.9,0,0,0,.33.528,64.274,64.274,0,0,1,5.02,4.356q-3.9.662-10.82,1.782a21.841,21.841,0,0,0-2.25.33,2.393,2.393,0,0,0-1.05-1.98,16.851,16.851,0,0,0-1.98-1.122,8.409,8.409,0,0,0-1.85-.594l-0.27-.066a25.8,25.8,0,0,0,4.03-3.96l0.2,0.132a19.954,19.954,0,0,1,2.9,3.234c0.18,0.221.42,0.54,0.73,0.957a8.57,8.57,0,0,0,.86,1.023,1.37,1.37,0,0,0,.52.594,1.273,1.273,0,0,0,.66.2l0.2-.066a4.441,4.441,0,0,0,1.88-1.353,2.921,2.921,0,0,0,.63-1.815,3.378,3.378,0,0,0-.59-1.881,5.19,5.19,0,0,0-1.72-1.551,7.782,7.782,0,0,0-5.02-1.056l0.33-.462a3.516,3.516,0,0,0,.8.066,2.79,2.79,0,0,0,.99-0.132q7.845-.99,10.82-1.122c0.7-.043,1.06-0.307,1.06-0.792a2.561,2.561,0,0,0-.33-1.056,6.646,6.646,0,0,0-.93-1.353,16.912,16.912,0,0,0-1.38-1.419,2.547,2.547,0,0,0-1.85-.792,7.337,7.337,0,0,0-1.45.2c-0.8.221-2.14,0.485-4.03,0.792l0.92-1.386a10.516,10.516,0,0,0,.8-1.221,2.211,2.211,0,0,0,.26-1.023,2.708,2.708,0,0,0-.86-1.782,8.265,8.265,0,0,1-.86-0.858,12.343,12.343,0,0,0-1.74-1.518,13.576,13.576,0,0,0-3.27-1.65,2.372,2.372,0,0,0-1.06-.264q-1.125,0-1.32,1.848a11.753,11.753,0,0,1-.1,3,20.913,20.913,0,0,1-1.22,3.861,41.225,41.225,0,0,1-4.85,8.943,39.158,39.158,0,0,1-5.58,6.765,2.685,2.685,0,0,0-1.05,1.584c0,0.309.24,0.462,0.72,0.462a3.216,3.216,0,0,0,1.46-.33,33.009,33.009,0,0,0,6.79-3.564,16.513,16.513,0,0,1-.85,5.709,10.967,10.967,0,0,1-1.98,4.191,2.705,2.705,0,0,0-.99,1.65,1.062,1.062,0,0,0,.23.693,4,4,0,0,0,.43.5,19.318,19.318,0,0,0,2.04,1.815,2.9,2.9,0,0,0,1.65.693h0Zm6.93-4.554a45.831,45.831,0,0,1,.93,10.824,90.436,90.436,0,0,1-.47,10.1c-0.04.352-.09,0.8-0.16,1.353a10.983,10.983,0,0,0-.1,1.353,4.981,4.981,0,0,0,.66,2.574,7.277,7.277,0,0,0,1.42,2.013,18.834,18.834,0,0,0,2.21,1.617,2.779,2.779,0,0,0,1.32.4,2.1,2.1,0,0,0,1.58-.693,2.615,2.615,0,0,0,.66-1.881q2.97-.594,7.17-1.056t6.17-.528q2.76-.132,4.62-0.132a20.4,20.4,0,0,1,3.1.2,1.216,1.216,0,0,0,1.22-.66,1.813,1.813,0,0,0,.23-1.452l-0.66-1.65a28.941,28.941,0,0,1,1.25-3.267q0.795-1.747,1.65-3.4a2.7,2.7,0,0,0,.33-1.188,1.4,1.4,0,0,0-.33-0.924,13.194,13.194,0,0,0-2.11-1.914,29.288,29.288,0,0,0-2.7-1.848,1.332,1.332,0,0,0-.8-0.2,3.3,3.3,0,0,0-.99.2,47.062,47.062,0,0,1-7.12,1.419c-3.66.551-7.37,1.046-11.16,1.485l0.13-2.244c1.54-.264,3.77-0.549,6.67-0.858l2.64-.264a39.63,39.63,0,0,1,6.27-.4,1.123,1.123,0,0,0,.92-0.4,1.4,1.4,0,0,0,.33-0.924,1.243,1.243,0,0,0-.06-0.462c-0.13-.351-0.42-0.967-0.86-1.848a37.4,37.4,0,0,1,2.44-4.29,2.561,2.561,0,0,0,.4-1.122,0.946,0.946,0,0,0-.4-0.858q-0.8-.792-2.01-1.782a23.312,23.312,0,0,0-2.41-1.716,1.2,1.2,0,0,0-.73-0.2,2.679,2.679,0,0,0-.92.2,52.223,52.223,0,0,1-7.69,1.683,83.042,83.042,0,0,1-8.94,1.221,0.716,0.716,0,0,0-.46.264,8.512,8.512,0,0,0-2.18-.264,0.954,0.954,0,0,0-1.19.924,2.007,2.007,0,0,0,.13.594h0Zm7.86,17.754a1.8,1.8,0,0,0,.92.33,1.692,1.692,0,0,0,.53-0.066q2.835-.526,10.62-1.32l3.17-.33c0.49-.043.73,0.243,0.73,0.858a17.6,17.6,0,0,1-.2,2.574q-6.93,1.058-15.71,1.716-0.06-1.254-.06-3.762h0Zm0.46-11.946a10.989,10.989,0,0,1,.06-1.32,5.066,5.066,0,0,0,.04-1.023c-0.03-.33-0.04-0.561-0.04-0.693q2.385-.4,8.98-1.188a0.632,0.632,0,0,1,.56.1,0.894,0.894,0,0,1,.17.627c0,0.485-.05,1.167-0.14,2.046a79.6,79.6,0,0,1-9.63,1.452h0Zm42.9,13.134a1.576,1.576,0,0,0,1.38.66,2.211,2.211,0,0,0,1.26-.462q4.155-3.5,7.46-6.435t8.77-8.019l2.45-2.244a0.435,0.435,0,0,0,.13-0.528,0.473,0.473,0,0,0-.46-0.264,1.064,1.064,0,0,0-.33.132q-3.435,1.782-6.93,3.432,0.06-2.111.06-8.118a42.509,42.509,0,0,1,5.61-1.188c1.01-.132,1.52-0.462,1.52-0.99a0.9,0.9,0,0,0-.2-0.528,25.787,25.787,0,0,0-2.77-3.1,2.774,2.774,0,0,0-2.05-.726,3.6,3.6,0,0,0-1.45.264l-0.72.264q0-2.837.06-4.026a15.975,15.975,0,0,0,.13-2.376c3-.615,4.73-0.99,5.22-1.122a1.548,1.548,0,0,0,.89-0.5,1.176,1.176,0,0,0,.3-0.759,1.315,1.315,0,0,0-.27-0.858,8.654,8.654,0,0,0-1.42-1.716,7.9,7.9,0,0,0-1.75-1.32,2.815,2.815,0,0,0-1.65-.462,6.17,6.17,0,0,0-1.51.2l-5.22,1.518c-3.61,1.145-6.11,1.871-7.52,2.178a1.091,1.091,0,0,0-.93.858,1.2,1.2,0,0,0,.2.594,10.419,10.419,0,0,0,2.71,2.376,5.055,5.055,0,0,0,2.31.528,4.891,4.891,0,0,0,.92-0.066,2.145,2.145,0,0,0,.6-0.132l0.06,1.386q0.135,2.113.27,5.94l-7.53,2.442a0.993,0.993,0,0,0-.86.594l0.14,0.33a6.783,6.783,0,0,0,1.05,1.716,4.809,4.809,0,0,0,1.39,1.188,6.169,6.169,0,0,0,.86.528,1.87,1.87,0,0,0,.85.2,11.089,11.089,0,0,0,1.39-.264c0.84-.219,1.67-0.483,2.51-0.792a28.733,28.733,0,0,1-.4,3.63q-0.33,1.916,1.52,4.818-2.04.926-5.81,2.376a6.827,6.827,0,0,1-2.97.726l-0.92-.066a1.192,1.192,0,0,0-1.12.429,1.965,1.965,0,0,0-.4,1.287,3.8,3.8,0,0,0,.2,1.188,24.923,24.923,0,0,0,1.45,3.069,10.2,10.2,0,0,0,1.52,2.211h0Zm16.04,2.97a5.977,5.977,0,0,0,2.27,2.046,6.459,6.459,0,0,0,3.27.99,3.474,3.474,0,0,0,.79-0.066,102,102,0,0,1,12.28-1.287q8.775-.561,15.38-0.561c1.84,0,3.12.022,3.82,0.066l1.98,0.132a2.244,2.244,0,0,0,1.39-.4,1.514,1.514,0,0,0,.66-1.32,4.154,4.154,0,0,0-.53-1.716q-0.2-.262-0.66-0.99a10.473,10.473,0,0,0-.92-1.254,8.378,8.378,0,0,0-1.26-1.122,13.422,13.422,0,0,0-1.55-1.023,2.681,2.681,0,0,0-1.28-.3,1.753,1.753,0,0,0-.53.066q-3.96.792-10.89,1.584l-0.07-5.346q3.375-.262,7.06-0.4c1.32-.043,2.25-0.1,2.78-0.165a1.562,1.562,0,0,0,1.09-.5,2,2,0,0,0,.16-1.386,4.943,4.943,0,0,0-1.06-2.673,6.606,6.606,0,0,0-1.78-1.815,2.629,2.629,0,0,0-1.38-.528,10.036,10.036,0,0,0-1.65.33q-1.92.464-5.35,1.056c0-2.155-.02-3.762-0.07-4.818,1.94-.087,3.33-0.132,4.16-0.132a3.462,3.462,0,0,0,2.44,1.386,1.2,1.2,0,0,0,.73-0.2,5.049,5.049,0,0,0,2.05-2.607,31.018,31.018,0,0,0,1.25-4.917q0.06-.329.66-5.907a57.881,57.881,0,0,1,1.39-8.481,8.215,8.215,0,0,1,.79-1.848,3.806,3.806,0,0,0,.59-1.65q0-1.054-1.65-2.442a25.008,25.008,0,0,0-3.3-2.211,12.775,12.775,0,0,0-3.23-1.221,5.665,5.665,0,0,0-.93-0.132,3.81,3.81,0,0,0-1.65.462,7.945,7.945,0,0,0-.85.627,6.615,6.615,0,0,1-1.42.825,12.682,12.682,0,0,1-2.54.726l-2.71.462q-5.61.99-8.51,1.386l-0.4-.4a6.589,6.589,0,0,0-2.57-1.452,12.672,12.672,0,0,0-3.7-.33,2.166,2.166,0,0,0-1.22.33,1,1,0,0,0-.5.858,1.672,1.672,0,0,0,.2.726,21.5,21.5,0,0,1,1.75,6.633q0.765,4.918,1.12,10.2c0.24,3.521.37,6.1,0.37,7.722a4.617,4.617,0,0,0,.82,2.574,6.744,6.744,0,0,0,2.01,2.013,4.148,4.148,0,0,0,2.18.759,2.716,2.716,0,0,0,1.69-.66,3.571,3.571,0,0,0,1.15-2.046,17.935,17.935,0,0,1,2.05-.33l0.06,5.148q-4.425.529-9.3,0.66a1.034,1.034,0,0,0-1.06,1.188,4.191,4.191,0,0,0,.56,1.914,6.611,6.611,0,0,0,1.35,1.782,4.136,4.136,0,0,0,3.04,1.188,17.612,17.612,0,0,0,2.97-.33l2.51-.4q0.06,2.114.06,5.214-11.61,1.058-15.44,1.056-1.65,0-1.65,1.122a4.719,4.719,0,0,0,.73,2.112h0Zm12.01-42.768a1.681,1.681,0,0,0,1.25.462,11.032,11.032,0,0,0,1.19-.132l0.99-.132a12.968,12.968,0,0,1,.66,3.828c0,0.881.02,1.629,0.07,2.244-0.49.045-1.65,0.155-3.5,0.33q-0.27-2.242-.66-6.6h0Zm0.99,9.9a2.087,2.087,0,0,0,2.24.858l1.06-.2,0.06,5.544c-0.57.089-1.07,0.165-1.51,0.231s-0.82.122-1.13,0.165Zm10.23-10.758q2.64-.329,3.3-0.33a1.417,1.417,0,0,1,.76.132,0.77,0.77,0,0,1,.16.594q0,3.433-.06,6.2a9.633,9.633,0,0,0-.99-0.66,2.833,2.833,0,0,0-1.26-.33,2.757,2.757,0,0,0-.86.132l-0.59.2v-0.594a9.3,9.3,0,0,1,.17-1.584c0.1-.615.18-1.011,0.23-1.188,0.04-.219.11-0.483,0.19-0.792a2.809,2.809,0,0,0,.14-0.726,0.852,0.852,0,0,0-.6-0.792,1.81,1.81,0,0,0-.59-0.264h0Zm0.39,16.1v-5.478q1.125-.064,2.64-0.066a4.019,4.019,0,0,0,.99-0.132c-0.08,2.553-.17,4.356-0.26,5.412-1.5.089-2.62,0.177-3.37,0.264h0Zm53.27,35.508a11.832,11.832,0,0,0,5.05-3.267,7.788,7.788,0,0,0,1.88-5.313l-0.14-6.534c-0.04-.879-0.08-2.079-0.13-3.6s-0.04-2.541,0-3.069a5.982,5.982,0,0,1,.46-1.848,4.131,4.131,0,0,0,.4-1.188,0.821,0.821,0,0,0-.4-0.726,3.3,3.3,0,0,0-.85-0.594q4.74-1.055,7.19-1.716c0.18,0.264.7,1.056,1.58,2.376a23.771,23.771,0,0,0,2.25,2.97,2.151,2.151,0,0,0,1.85.792,5.514,5.514,0,0,0,1.71-.33,4.442,4.442,0,0,0,2.21-1.848,5.211,5.211,0,0,0,.76-2.772,6.213,6.213,0,0,0-.53-2.541,5.69,5.69,0,0,0-1.51-2.079,23.321,23.321,0,0,0-6.5-3.96,15.393,15.393,0,0,0-5.85-1.386c-0.79.132-1.18,0.441-1.18,0.924a1.024,1.024,0,0,0,.26.66,33.83,33.83,0,0,1,2.38,3.3c-0.62.045-1.79,0.155-3.5,0.33q-6.54.594-8.05,0.792a0.332,0.332,0,0,1-.37-0.066c-0.06-.087-0.01-0.175.17-0.264q3.885-2.178,8.51-5.379a50.081,50.081,0,0,0,7.26-5.907,5.894,5.894,0,0,0,1.16-1.452,3.293,3.293,0,0,0,.49-1.65,2.027,2.027,0,0,0-.26-0.99,8.561,8.561,0,0,0-1.85-1.947,27.159,27.159,0,0,0-2.84-2.079,3.8,3.8,0,0,0-1.85-.792,0.777,0.777,0,0,0-.79.594,21.648,21.648,0,0,1-1.71,3.564,23.19,23.19,0,0,1-2.51,3.5q-3.165.662-8.52,1.32c-0.08,0-.11-0.033-0.06-0.1a0.337,0.337,0,0,0,.06-0.165c0.18-.132.38-0.274,0.6-0.429s0.46-.34.72-0.561a32.536,32.536,0,0,0,3.44-2.64c0.3-.264.7-0.594,1.18-0.99a15.393,15.393,0,0,0,1.19-1.056,1.374,1.374,0,0,0,.46-0.99,1.112,1.112,0,0,0-.26-0.726l-1.19-1.122a78.692,78.692,0,0,0,12.21-2.838,2.3,2.3,0,0,0,1.98-2.31c0-.879-0.58-2.122-1.75-3.729a13.283,13.283,0,0,0-3.53-3.531,1.579,1.579,0,0,0-.92-0.33,1.607,1.607,0,0,0-1.45.924,13.36,13.36,0,0,1-3.44,3.036q-5.73,3.433-23.56,9.174a0.963,0.963,0,0,0-.59.3,0.7,0.7,0,0,0-.2.429c0,0.441.37,0.705,1.12,0.792,0.4,0.045,1.1.066,2.11,0.066a89.724,89.724,0,0,0,9.38-.66,26.005,26.005,0,0,1-4.13,5.082,27.553,27.553,0,0,1-5.11,3.894,0.882,0.882,0,0,0-.33.726,3.272,3.272,0,0,0,.19.99,11.818,11.818,0,0,0,3.04,4.092,2.645,2.645,0,0,0,1.19.4,4.049,4.049,0,0,0,1.38-.33q5.415-1.846,8.78-2.9a54.822,54.822,0,0,1-8.18,5.676,20.894,20.894,0,0,1-7.66,2.772,6.031,6.031,0,0,0-2.57.66,1.009,1.009,0,0,0-.46,1.188,16.234,16.234,0,0,0,1.28,3.1,13.6,13.6,0,0,0,1.55,2.508,2.95,2.95,0,0,0,2.05,1.122,6.454,6.454,0,0,0,2.24-.726q1.65-.658,10.23-2.706,0.465,4.752.47,10.1a30.282,30.282,0,0,1-.14,3.7q0,1.716-2.64,1.716c-0.17,0-1.12-.066-2.83-0.2q-1.26-.066-1.26.462a1.064,1.064,0,0,0,.3.627,3.282,3.282,0,0,0,.56.561,11.723,11.723,0,0,1,1.98,2.112c0.62,0.836,1.32,1.892,2.11,3.168a6.366,6.366,0,0,0,1.29,1.65,2.226,2.226,0,0,0,1.48.528,3.229,3.229,0,0,0,1.46-.33h0Zm-24.75-4.29a1.027,1.027,0,0,0-.53.726q0,0.4.72,0.4l0.4-.066a26.293,26.293,0,0,0,5.41-2.079c2.47-1.166,4.85-2.431,7.16-3.8a23.2,23.2,0,0,0,4.72-3.366,3.639,3.639,0,0,0,1.32-2.376,2.192,2.192,0,0,0-.06-0.594,8.429,8.429,0,0,0-2.28-2.871,11.446,11.446,0,0,0-3.27-2.145,3.681,3.681,0,0,0-.72-0.132,1.738,1.738,0,0,0-1.65,1.518q-0.735,1.85-5.05,7.491a62.359,62.359,0,0,1-6.17,7.293h0Zm33.26-14.058a49.525,49.525,0,0,1,4.72,4.488,63.446,63.446,0,0,1,4.78,5.676,9.176,9.176,0,0,0,1.62,1.782,2.411,2.411,0,0,0,1.49.528,3.372,3.372,0,0,0,1.58-.462,10.636,10.636,0,0,0,2.28-2.343,4.753,4.753,0,0,0,.89-2.739,5.444,5.444,0,0,0-1.85-3.828,14.853,14.853,0,0,0-5.74-3.465,31.709,31.709,0,0,0-8.19-1.815,3.1,3.1,0,0,0-1.58.231,0.9,0.9,0,0,0-.59.825,1.64,1.64,0,0,0,.59,1.122h0Zm35.05-1.782a2.413,2.413,0,0,0,1.65.858,4.257,4.257,0,0,0,2.44-1.386q0.915-.857,10.56-6.93l3.03-1.914a1.76,1.76,0,0,0,.99-0.924c0-.132-0.15-0.2-0.46-0.2a7.612,7.612,0,0,0-1.78.264l-4.09.99q-2.835.727-5.15,1.122,1.65-1.516,3.8-3.828c1.42-1.539,2.76-2.991,3.99-4.356q1.98-2.308,2.9-3.234a4.291,4.291,0,0,0,1.52-2.9,2.027,2.027,0,0,0-.26-0.99,11.533,11.533,0,0,0-1.55-2.013,15.531,15.531,0,0,0-2.22-1.947,3.064,3.064,0,0,0-1.65-.858,0.627,0.627,0,0,0-.66.528c-0.13.441-.3,1.035-0.52,1.782s-0.48,1.475-.76,2.178a20.364,20.364,0,0,1-1.29,2.508,14.226,14.226,0,0,1-1.06,1.782l-4.15.528q4.74-8.712,7.32-12.408a6.046,6.046,0,0,0,1.32-2.838,2.27,2.27,0,0,0-.53-1.32,10.973,10.973,0,0,0-2.07-1.914,18,18,0,0,0-2.81-1.848,3.786,3.786,0,0,0-1.72-.528,0.612,0.612,0,0,0-.72.66,24.353,24.353,0,0,1-1.19,6.8,52.858,52.858,0,0,1-3.04,7.26,48.1,48.1,0,0,1-4.88,7.524,1.083,1.083,0,0,0-.33.792,1.787,1.787,0,0,0,.2.792,9.21,9.21,0,0,0,2.84,3.894,1.594,1.594,0,0,0,1.05.462,2.379,2.379,0,0,0,1.19-.4l3.43-1.056a29.622,29.622,0,0,1-6.14,6.534,2.519,2.519,0,0,0-1.25,1.914l0.07,0.594c0.13,0.353.38,0.99,0.76,1.914a7.026,7.026,0,0,0,1.22,2.112h0Zm-3.77,7.986c0.14,0.4.49,1.431,1.06,3.1a9.373,9.373,0,0,0,1.52,3.168,1.774,1.774,0,0,0,1.52.858,1.734,1.734,0,0,0,1.18-.462,155.176,155.176,0,0,0,17.89-17.292,0.444,0.444,0,0,0,.2-0.429,0.325,0.325,0,0,0-.33-0.165,1.142,1.142,0,0,0-.53.2q-4.02,1.916-9.14,4.158t-8.15,3.432a12.949,12.949,0,0,1-4.09.726,1.139,1.139,0,0,0-.99.462,2,2,0,0,0-.33,1.188,3.014,3.014,0,0,0,.19,1.056h0Zm9.97,9.9a0.364,0.364,0,0,0,0,.429,0.466,0.466,0,0,0,.46.3h0.07a31.046,31.046,0,0,0,15.34-5.478q6.3-4.554,7.63-15.378c0.04-.219.12-0.627,0.23-1.221a8.611,8.611,0,0,0,.16-1.551,1.878,1.878,0,0,0-.66-1.65,17.1,17.1,0,0,0-4.16-1.518q2.25-.857,6.01-1.98c0.09,1.056.13,2,.13,2.838q0,3.433-.59,11.022-0.33,3.168-.33,4.356,0,6.8,5.87,8.646a23.421,23.421,0,0,0,6.27.726,21.191,21.191,0,0,0,8.65-1.518q2.835-1.32,2.84-3.7a3.984,3.984,0,0,0-.4-1.782,39.36,39.36,0,0,1-1.75-4.422q-1.02-2.97-1.68-5.148a0.6,0.6,0,0,0-.33-0.4,0.669,0.669,0,0,0-.4.528c-0.39,2.025-.76,3.587-1.09,4.686a9.71,9.71,0,0,1-1.28,2.772,2.519,2.519,0,0,1-1.59,1.254,9.325,9.325,0,0,1-3.56.792,7.015,7.015,0,0,1-3.3-.792,2.884,2.884,0,0,1-1.55-1.749,9.5,9.5,0,0,1-.43-3.135l0.06-1.98q0.33-3.893,1.19-9.042a10.229,10.229,0,0,0,.13-1.254,3.356,3.356,0,0,0-.85-2.112,5.577,5.577,0,0,0-2.78-1.518q2.115-.594,4.23-0.99a16.67,16.67,0,0,0,1.25,2.046,1.858,1.858,0,0,0,1.52.99,1.085,1.085,0,0,0,.66-0.2,5.033,5.033,0,0,0,2.38-4.158,5.583,5.583,0,0,0-1.79-3.894,7.961,7.961,0,0,0-3.3-1.815,12.667,12.667,0,0,0-3.76-.693l-0.66.066c-0.31,0-.46.111-0.46,0.33a2.719,2.719,0,0,0,.33.858,21.85,21.85,0,0,1,1.72,2.574c-3.08.66-5.97,1.32-8.65,1.98,1.94-2.023,3.43-3.7,4.49-5.016a14.869,14.869,0,0,0,1.25-1.98,3.214,3.214,0,0,0,.4-1.452,4.312,4.312,0,0,0-.13-0.726,1.8,1.8,0,0,0-.53-0.792,86.546,86.546,0,0,1,12.41-1.65,1.93,1.93,0,0,0,1.18-.429,1.143,1.143,0,0,0,.4-0.891,1.818,1.818,0,0,0-.33-0.924,11.416,11.416,0,0,0-2.44-3.1,4.45,4.45,0,0,0-2.51-.66,11.129,11.129,0,0,0-1.85.2l-3.36.792q-0.93.2-7.46,1.65a71.63,71.63,0,0,1-9.51,1.65,2.948,2.948,0,0,0-1.41.4,0.955,0.955,0,0,0-.5.792,1.2,1.2,0,0,0,.2.594,10.282,10.282,0,0,0,2.44,2.8,4.47,4.47,0,0,0,2.71,1.155,1.987,1.987,0,0,0,.85-0.132c0.27-.087,1.19-0.373,2.78-0.858-0.05.177-.2,0.594-0.47,1.254a15.822,15.822,0,0,1-2.77,3.993,20.761,20.761,0,0,1-3.63,3.333,9.164,9.164,0,0,0-1.12,1.056,1.6,1.6,0,0,0-.33,1.056,5.718,5.718,0,0,0,1.65,4.224,2.554,2.554,0,0,0,1.65.66,2.275,2.275,0,0,0,.92-0.2,5.691,5.691,0,0,1,.4,2.376,20.151,20.151,0,0,1-2.28,8.679,30.185,30.185,0,0,1-6.23,8.58,22.877,22.877,0,0,1-8.65,5.445h0Zm19.4-58.014a49.205,49.205,0,0,1,5.15,9.24,0.91,0.91,0,0,0,.46.5,1.834,1.834,0,0,0,.93.231,1.948,1.948,0,0,0,.59-0.066,6.684,6.684,0,0,0,2.68-2.079,4.777,4.777,0,0,0,1.02-2.937q0-2.639-2.97-4.62a11.3,11.3,0,0,0-3.07-1.353,13.2,13.2,0,0,0-3.6-.5q-1.38,0-1.38.792a1.257,1.257,0,0,0,.1.462,1.554,1.554,0,0,1,.09.33h0Z" transform="translate(-2597.03 -578)"/>
  <g id="组_3" data-name="组 3">
    <path id="形状_6" data-name="形状 6" class="cls-2" d="M2661,608c-0.49.844,1.52-.715,0-2-1.95-1.655-36-24-36-24s-5.44-2.85-9,0-18,25-18,25-2.71,6.269,1,10,39,27,39,27,2.25,1.825,4,0c1.33-1.39-1-3-1-3l-36-24s-3.05-4.6-1-8c2.52-4.186,9-2,9-2l35,23s1.81,1.294,3-1S2661.49,607.156,2661,608Z" transform="translate(-2597.03 -578)"/>
    <path id="圆角矩形_568" data-name="圆角矩形 568" class="cls-2" d="M2612.68,611.273l33.27,22.081a2,2,0,0,1-2.21,3.333l-33.27-22.081A2,2,0,0,1,2612.68,611.273Z" transform="translate(-2597.03 -578)"/>
    <path id="形状_7" data-name="形状 7" class="cls-3" d="M2683,578h29l-53,122h-27Z" transform="translate(-2597.03 -578)"/>
    <path id="形状_8" data-name="形状 8" class="cls-4" d="M2723,578s64.92,9.67,46.7,77c-18.09,43.256-58.01,44.02-56.83,44s-41.87,1-41.87,1l10.97-26s26.79-.052,28.91,0,29.92-1.988,33.89-37c3.32-29.166-31.9-34-31.9-34Z" transform="translate(-2597.03 -578)"/>
  </g>
</svg>
