<svg height="1024" node-id="1" sillyvg="true" template-height="1024" template-width="1024" version="1.1" viewBox="0 0 1024 1024" width="1024" xmlns="http://www.w3.org/2000/svg" xmlns:xlink="http://www.w3.org/1999/xlink"><defs node-id="18"><radialGradient cx="0.5" cy="0.27637437" fx="0.5" fy="0.27637437" gradientUnits="objectBoundingBox" id="radialGradient-1" node-id="5" r="0.72362566" spreadMethod="pad"><stop offset="0" stop-color="#fff5aa"></stop><stop offset="0.27121985" stop-color="#ffeb96"></stop><stop offset="1" stop-color="#ffa60f"></stop></radialGradient></defs><g node-id="27"><path d="M 901.43 512.18 L 901.11 527.70 L 900.20 543.08 L 898.69 558.32 L 896.58 573.45 L 893.88 588.47 L 890.59 603.40 L 886.74 618.12 L 882.32 632.64 L 877.34 646.98 L 871.80 661.14 L 865.71 675.07 L 859.09 688.73 L 851.94 702.12 L 844.26 715.25 L 836.03 728.13 L 827.32 740.66 L 818.11 752.85 L 808.40 764.70 L 798.17 776.22 L 787.42 787.42 L 776.22 798.17 L 764.70 808.40 L 752.85 818.11 L 740.66 827.32 L 728.13 836.03 L 715.25 844.26 L 702.12 851.94 L 688.73 859.09 L 675.07 865.71 L 661.14 871.80 L 646.98 877.34 L 632.64 882.32 L 618.12 886.74 L 603.40 890.59 L 588.47 893.88 L 573.45 896.58 L 558.32 898.69 L 543.08 900.20 L 527.70 901.11 L 512.18 901.43 L 496.65 901.11 L 481.28 900.20 L 466.03 898.69 L 450.90 896.58 L 435.88 893.88 L 420.95 890.59 L 406.23 886.74 L 391.71 882.32 L 377.37 877.34 L 363.22 871.80 L 349.28 865.71 L 335.63 859.09 L 322.24 851.94 L 309.10 844.26 L 296.22 836.03 L 283.69 827.32 L 271.50 818.11 L 259.65 808.40 L 248.13 798.17 L 236.93 787.42 L 226.18 776.22 L 215.95 764.70 L 206.24 752.85 L 197.03 740.66 L 188.32 728.13 L 180.09 715.25 L 172.41 702.12 L 165.26 688.73 L 158.64 675.07 L 152.55 661.14 L 147.01 646.98 L 142.03 632.64 L 137.62 618.12 L 133.76 603.40 L 130.47 588.47 L 127.77 573.45 L 125.66 558.32 L 124.15 543.08 L 123.24 527.70 L 122.92 512.18 L 123.24 496.65 L 124.15 481.28 L 125.66 466.03 L 127.77 450.90 L 130.47 435.88 L 133.76 420.95 L 137.62 406.23 L 142.03 391.71 L 147.01 377.37 L 152.55 363.22 L 158.64 349.28 L 165.26 335.63 L 172.41 322.24 L 180.09 309.10 L 188.32 296.22 L 197.03 283.69 L 206.24 271.50 L 215.95 259.65 L 226.18 248.13 L 236.93 236.93 L 248.13 226.18 L 259.65 215.95 L 271.50 206.24 L 283.69 197.03 L 296.22 188.32 L 309.10 180.09 L 322.24 172.41 L 335.63 165.26 L 349.28 158.64 L 363.22 152.55 L 377.37 147.01 L 391.71 142.03 L 406.23 137.62 L 420.95 133.76 L 435.88 130.47 L 450.90 127.77 L 466.03 125.66 L 481.28 124.15 L 496.65 123.24 L 512.18 122.92 L 527.70 123.24 L 543.08 124.15 L 558.32 125.66 L 573.45 127.77 L 588.47 130.47 L 603.40 133.76 L 618.12 137.62 L 632.64 142.03 L 646.98 147.01 L 661.14 152.55 L 675.07 158.64 L 688.73 165.26 L 702.12 172.41 L 715.25 180.09 L 728.13 188.32 L 740.66 197.03 L 752.85 206.24 L 764.70 215.95 L 776.22 226.18 L 787.42 236.93 L 798.17 248.13 L 808.40 259.65 L 818.11 271.50 L 827.32 283.69 L 836.03 296.22 L 844.26 309.10 L 851.94 322.24 L 859.09 335.63 L 865.71 349.28 L 871.80 363.22 L 877.34 377.37 L 882.32 391.71 L 886.74 406.23 L 890.59 420.95 L 893.88 435.88 L 896.58 450.90 L 898.69 466.03 L 900.20 481.28 L 901.11 496.65 L 901.43 512.18 Z" fill="url(#radialGradient-1)" fill-rule="evenodd" group-id="1" id="蒙版" node-id="11" stroke="none" target-height="778.51" target-width="778.51" target-x="122.92" target-y="122.92"></path></g><path d="M 701.36 629.06 C 705.29 622.62 713.69 620.59 720.13 624.51 C 726.57 628.44 728.61 636.85 724.68 643.29 C 676.10 722.90 606.64 763.24 517.78 763.24 C 428.92 763.24 359.47 722.90 310.89 643.29 C 306.96 636.85 308.99 628.44 315.43 624.51 C 321.87 620.59 330.28 622.62 334.21 629.06 C 377.90 700.67 438.60 735.93 517.78 735.93 C 596.96 735.93 657.66 700.67 701.36 629.06 Z" fill="#672900" fill-rule="nonzero" id="路径-35" node-id="12" stroke="none" target-height="142.64996" target-width="421.65" target-x="306.96" target-y="620.59"></path><path d="M 450.71 358.52 C 450.71 420.75 410.97 471.20 361.94 471.20 C 312.91 471.20 273.16 420.75 273.16 358.52 C 273.16 296.29 312.91 245.84 361.94 245.84 C 410.97 245.84 450.71 296.29 450.71 358.52 Z" fill="#ffffff" fill-rule="evenodd" id="椭圆形" node-id="13" stroke="none" target-height="225.36002" target-width="177.54999" target-x="273.16" target-y="245.84"></path><path d="M 771.68 358.52 C 771.68 420.75 731.93 471.20 682.90 471.20 C 633.87 471.20 594.12 420.75 594.12 358.52 C 594.12 296.29 633.87 245.84 682.90 245.84 C 731.93 245.84 771.68 296.29 771.68 358.52 Z" fill="#ffffff" fill-rule="evenodd" id="椭圆形备份" node-id="14" stroke="none" target-height="225.36002" target-width="177.56" target-x="594.12" target-y="245.84"></path><path d="M 437.06 396.08 C 437.06 437.57 404.95 471.20 365.35 471.20 C 325.75 471.20 293.65 437.57 293.65 396.08 C 293.65 354.60 325.75 320.96 365.35 320.96 C 404.95 320.96 437.06 354.60 437.06 396.08 Z" fill="#302838" fill-rule="evenodd" id="椭圆形" node-id="15" stroke="none" target-height="150.24002" target-width="143.41" target-x="293.65" target-y="320.96"></path><path d="M 751.19 396.08 C 751.19 437.57 719.09 471.20 679.49 471.20 C 639.89 471.20 607.78 437.57 607.78 396.08 C 607.78 354.60 639.89 320.96 679.49 320.96 C 719.09 320.96 751.19 354.60 751.19 396.08 Z" fill="#302838" fill-rule="evenodd" id="椭圆形备份-2" node-id="16" stroke="none" target-height="150.24002" target-width="143.40997" target-x="607.78" target-y="320.96"></path></svg>