<svg id="数据总库logo" xmlns="http://www.w3.org/2000/svg" width="547.16" height="90.469" viewBox="0 0 547.16 90.469">
  <defs>
    <style>
      .cls-1 {
        fill: #fff;
        fill-rule: evenodd;
      }
    </style>
  </defs>
  <path id="中国近代文献数据总库"  class="cls-1" d="M1333.96,914.824V904.146h9v10.678h-9Zm-13.92,0V904.146h8.92v10.678h-8.92Zm24.8-14.318-2.24,2.48h-8.64v-7c1.08-.16,1.4-0.6,1.48-1.16l-6.48-.6v8.758h-8.56l-5.32-2.08v19.037h0.72c2.04,0,4.24-1.12,4.24-1.6v-2.359h8.92V931.7h0.92c1.92,0,4.08-1.2,4.08-1.719v-14h9v3.359h0.84c1.64,0,4.12-.88,4.16-1.2V904.986a2.845,2.845,0,0,0,1.64-.88Zm35.56,13.278a10.9,10.9,0,0,1,2.16,5.119,2.407,2.407,0,0,0,1.56.6l-1.72,2.28h-3.52v-9.039h6.88a0.9,0.9,0,0,0,1.04-.639c-1.36-1.36-3.72-3.28-3.72-3.28l-2.04,2.76h-2.16v-7.439h7.84a0.979,0.979,0,0,0,1.08-.64c-1.48-1.32-3.96-3.279-3.96-3.279l-2.16,2.839h-15l0.32,1.08h7.6v7.439h-6.36l0.32,1.159h6.04v9.039h-8.4l0.32,1.12h20.96a0.979,0.979,0,0,0,1.08-.64c-1.12-1.04-2.72-2.36-3.48-3,1.72-.92,1.84-4.439-4.28-5.719ZM1365,927.3v-29.2h24.08v29.2H1365Zm25.96-32.874-2.28,2.519H1365.4l-5-2.08V931.7h0.8c1.96,0,3.8-1.16,3.8-1.759v-1.48h24.08V931.5h0.76c1.72,0,3.88-1.12,3.92-1.519V898.867a3.254,3.254,0,0,0,1.68-.84Zm15.08,0.679a26.915,26.915,0,0,1,4.84,8.759c4.52,3.079,7.84-5.8-4.44-8.959Zm23.6,13.518v16.717h0.84c2.36,0,3.8-.76,3.8-1V908.625h6.2a0.979,0.979,0,0,0,1.08-.64c-1.72-1.56-4.56-3.8-4.56-3.8l-2.56,3.319H1423.8v-7.758a126.065,126.065,0,0,0,12.84-1.2c1.2,0.48,2.12.48,2.6,0.12l-4.56-4.559a75.783,75.783,0,0,1-11.44,4.519l-4.04-1.2v9.638c0,5.679-.28,12.118-3.6,17.2a11.209,11.209,0,0,1-2.16-1.759V910.225a3.216,3.216,0,0,0,2.04-.88l-4.68-3.8-2.2,2.919h-4.56l0.2,1.12h4.96v13.638c-1.76,1.119-3.96,2.6-5.6,3.519l3.2,4.8a0.835,0.835,0,0,0,.4-0.92c1.32-2.319,3.4-5.359,4.24-6.678,0.44-.72.88-0.8,1.4,0,3.32,4.879,6.88,6.878,15.04,6.878h10.8a4.268,4.268,0,0,1,3.08-3.959v-0.48c-4.44.24-8.04,0.28-12.44,0.28-6.2.04-10.2-.44-13.12-2.04,6.4-4.279,7.44-10.758,7.6-16h5.84Zm46.64-12.838a14.2,14.2,0,0,1,3.84,5.679c4.2,2.44,7.2-5.479-3.52-5.959Zm-17.52,9.4a51.342,51.342,0,0,0,4.12-8.119,1.359,1.359,0,0,0,1.56-.84l-6.68-2.119a62.784,62.784,0,0,1-8.76,20.876l0.48,0.32a33.683,33.683,0,0,0,5.72-5.279V931.7h0.88c1.8,0,3.72-1,3.76-1.36V906.825a1.489,1.489,0,0,0,1.28-.759Zm28.08,14.757-0.44-.08a39.7,39.7,0,0,1-2.56,4.959c-0.4.68-.68,0.68-1.32,0.12-5.08-3.639-7.36-9.758-8.32-16.757l11.72-1.36a1.1,1.1,0,0,0,1.04-.8c-2.08-1.4-5.36-3.2-5.36-3.2l-2.36,3.639-5.16.6a81.025,81.025,0,0,1-.4-10.4,1.449,1.449,0,0,0,1.44-1.16l-6.24-.76a101.577,101.577,0,0,0,.68,12.838l-8.44,1,0.44,1.08,8.16-.96c1.2,8.559,4,15.837,10.12,20.837,2,1.559,5.36,3.159,7.12,1.279,0.64-.679.44-1.839-1.04-4.159Zm22.44-25.4a16.244,16.244,0,0,1,4.32,7.319c4.72,3.2,8.44-6.119-4.04-7.558Zm10.96,9.879a31.158,31.158,0,0,1-6.12,14.517,28.242,28.242,0,0,1-9.48-14.517h15.6Zm11,0a1,1,0,0,0,1.12-.64c-1.84-1.72-5-4.279-5-4.279l-2.84,3.8h-28.96l0.32,1.12h8.04c1.44,7.359,4.08,13,7.76,17.237-3.92,3.959-9.36,7.2-16.48,9.558l0.2,0.48c7.92-1.559,14-4.119,18.68-7.6a36.778,36.778,0,0,0,13.76,7.6,5.88,5.88,0,0,1,4.92-4.119l0.12-.48a47.332,47.332,0,0,1-15.48-5.879c4.52-4.519,7.2-10.238,8.64-16.8h5.2Zm40.64-7.879a10.653,10.653,0,0,1,2.12,5.959c3.36,3.04,7.52-3.759-1.72-6.2ZM1547,906.785a13.923,13.923,0,0,1,1.08,5.559c2.24,2.4,5.6-2.239-.6-5.759Zm6.76,12.438h-0.44V914.7h3.36a2.027,2.027,0,0,0,.52-0.08v4.6c-0.92-.959-2.08-2-2.08-2Zm23.8-11.958a0.952,0.952,0,0,0,1.08-.64c-1.48-1.4-4-3.479-4-3.479l-2.16,3h-1.56c0.08-3.2.08-6.6,0.12-10.2a1.415,1.415,0,0,0,1.44-1.16l-6.12-.559c0,4.239.08,8.2,0,11.918h-3.76l0.12-.12-4.08-3.08-1.84,2.12h-2.96v-3.8h7.92a1.03,1.03,0,0,0,1.12-.64c-1.68-1.519-4.48-3.679-4.48-3.679l-2.48,3.2h-2.08v-4.36c1.04-.2,1.36-0.6,1.44-1.16l-5.92-.479v6h-8.2l0.32,1.119h7.88v3.8h-2.6l-4.4-1.76v27.875h0.68c1.96,0,3.16-.92,3.16-1.239V906.186h11v7.4c-0.92-.92-2.04-1.919-2.04-1.919l-1.32,1.919h-1.44a35.417,35.417,0,0,0,3.16-5.2,1.3,1.3,0,0,0,1.44-.88l-4.4-1.04a61.231,61.231,0,0,1-1.12,7.119h-5.24l0.32,1.12h3.2v4.519h-3.56l0.32,1.16h3.24v8.239h0.6a4.231,4.231,0,0,0,2.96-.84v-7.4h3.36a2.027,2.027,0,0,0,.52-0.08v5.079a0.516,0.516,0,0,1-.6.64c-0.48,0-2.04-.12-2.04-0.12v0.6a2.162,2.162,0,0,1,1.76,1.2,7.661,7.661,0,0,1,.44,2.8c3.92-.359,4.4-1.879,4.4-4.719v-19a3.936,3.936,0,0,0,.88-0.24l0.2,0.72h4.12c-0.24,9.6-1.44,17.477-6.92,23.876l0.44,0.6c7.28-4.959,9.76-11.478,10.64-19.436,0.32,8.918,1.24,14.477,4.16,19.4a5.221,5.221,0,0,1,4.28-3.239l0.16-.4c-4.52-4.319-7.24-10.518-8.04-20.8h6.48Zm22.88-5.2a31.637,31.637,0,0,0,4.44-4.279,1.374,1.374,0,0,0,1.48-.72l-4.88-1.64c-0.52,2.28-1.12,4.8-1.64,6.319Zm-12.6-6.159a11.869,11.869,0,0,1,1.96,5.439c3.16,2.76,7-3.359-1.56-5.679Zm12.76,21.517a20.552,20.552,0,0,1-2.28,5.119,33.944,33.944,0,0,0-5.24-.6c0.84-1.4,1.76-3,2.56-4.519h4.96Zm2.2-3.36-2.28,2.2h-4.24c0.32-.64.64-1.2,0.92-1.72,1.2,0.12,1.56-.28,1.72-0.68l-3.96-1.36h0.28c1.64,0,3.52-.8,3.52-1.159v-5.8a16.222,16.222,0,0,1,3.24,5.239c3.84,2.439,6.8-4.759-3.24-6.279v-0.64h7.96a0.9,0.9,0,0,0,1.04-.64c-1.36-1.36-3.64-3.279-3.64-3.279l-2,2.759h-3.36v-6.959a1.3,1.3,0,0,0,1.36-1.04l-5.64-.559v8.558h-7.92l0.32,1.16h5.96a22.917,22.917,0,0,1-6.68,8.758l0.4,0.56a30.076,30.076,0,0,0,7.92-5.159v4.319l-0.8-.279c-0.36,1-1.04,2.519-1.84,4.2h-5.2l0.36,1.16h4.28c-0.88,1.759-1.8,3.479-2.56,4.719l-0.4.56a33.035,33.035,0,0,1,7.76,2.639,23.47,23.47,0,0,1-9.52,5.719l0.24,0.6a27.756,27.756,0,0,0,11.88-4.919,14.284,14.284,0,0,1,2.72,2.12c2.68,0.92,4.72-2.72.4-5.079a19.7,19.7,0,0,0,3.32-5.719,2.113,2.113,0,0,0,1.56-.6Zm13.4-9.6a41.607,41.607,0,0,1-2.68,13.158,34.023,34.023,0,0,1-3.52-8.639,36.175,36.175,0,0,0,2.12-4.519h4.08Zm7.28,0a0.979,0.979,0,0,0,1.08-.64c-1.64-1.56-4.44-3.8-4.44-3.8l-2.48,3.279h-5.08a61.544,61.544,0,0,0,1.92-6.639,1.488,1.488,0,0,0,1.52-.96l-6.48-1.439a72.426,72.426,0,0,1-4.32,20.276l0.52,0.32a28.552,28.552,0,0,0,3.48-4.559,50.283,50.283,0,0,0,2.72,10.438,27.467,27.467,0,0,1-11.2,10.478l0.28,0.44a29.75,29.75,0,0,0,12.6-7.4,21.163,21.163,0,0,0,6.64,7.439,4.906,4.906,0,0,1,4.08-3.759l0.12-.4a25.278,25.278,0,0,1-8.4-6.319c3.2-4.639,4.6-10.358,5.24-16.757h2.2Zm39.6,15.957v7.439h-8.88v-7.439h8.88Zm0.2-22v6.119h-12.8v-6.119h12.8Zm5.24,14.4a0.975,0.975,0,0,0,1.12-.639c-1.6-1.52-4.28-3.76-4.28-3.76l-2.36,3.24h-2.36v-4.24a1.043,1.043,0,0,0,1.12-.88l-5.56-.479v5.6h-5.8c0.08-1.36.08-2.68,0.08-3.96v-2h12.8v0.959h0.76c1.48,0,3.68-.879,3.68-1.239v-6.4a2.175,2.175,0,0,0,1.4-.72l-4.2-3.2-2.04,2.2H1651.2l-5.12-1.88v8.359c-1.12-1.44-3-3.479-3-3.479l-1.96,3.319h-0.08v-7.8c1-.16,1.4-0.56,1.48-1.12l-5.92-.6v9.518H1632l0.32,1.12h4.28v7.838c-2.28.56-4.12,1.04-5.2,1.24l1.92,5.319a1.515,1.515,0,0,0,1-1.079c0.8-.48,1.56-0.92,2.28-1.4v9.358c0,0.52-.2.68-0.8,0.68-0.68,0-3.88-.2-3.88-0.2v0.56a4.107,4.107,0,0,1,2.92,1.48,6.4,6.4,0,0,1,.72,3.2c4.88-.48,5.48-2.2,5.48-5.4V913.864c2.04-1.32,3.64-2.439,4.92-3.359l-0.12-.44c-1.6.48-3.24,0.92-4.8,1.36v-6.679h4.28a1.153,1.153,0,0,0,.76-0.24v3.239c0,7.719-.32,16.278-4.48,23.156l0.48,0.28c6.2-5.039,7.84-12.038,8.28-18.357h5.84v6.439h-1.8l-4.6-1.8V931.7h0.64c1.8,0,3.76-.96,3.76-1.36v-1.319h8.88V931.5h0.76c1.44,0,3.68-.8,3.72-1.08v-9.278a2.708,2.708,0,0,0,1.64-.8l-4.44-3.4-2.08,2.319h-2.04v-6.439h7.88Zm17.84-18.117a15.359,15.359,0,0,1,3.96,6.679c4.36,2.92,7.84-5.6-3.64-6.958Zm18.12,9.039v9.638h-16.16v-9.638h16.16Zm-16.16,10.8h16.16v2.12h0.8c1.56,0,3.88-.84,3.92-1.12V904.426a2.665,2.665,0,0,0,1.44-.76l-4.44-3.319-2.08,2.279h-3.96a68.833,68.833,0,0,0,6.44-5.759,1.4,1.4,0,0,0,1.56-.68l-6.4-2.119a71.318,71.318,0,0,1-3.08,8.558h-10.04l-5.04-2v16.558h0.72c1.92,0,4-1.04,4-1.48v-1.16Zm6.08,1.8a13.222,13.222,0,0,1,3.36,6.759c3.88,3,7.6-4.839-3-7Zm-11.36,2.159a7.02,7.02,0,0,1-3.4,5.959,2.564,2.564,0,0,0-1.52,3.04c0.6,1.4,2.4,1.64,3.76.8,2-1.24,3.56-4.759,1.72-9.8h-0.56Zm22.8,3.04h-0.44a23.4,23.4,0,0,1-1.96,4.519,1.391,1.391,0,0,1-1.2.56c-0.64.04-2.24,0.04-3.96,0.04h-5c-1.52,0-1.72-.16-1.72-0.72V919.1a1.276,1.276,0,0,0,1.28-1.039l-6-.48V926.7c0,3.12,1.12,3.839,5.72,3.839h5.2c8.04,0,9.96-.519,9.96-2.519,0-.84-0.32-1.36-1.76-1.84Zm-0.2-3.279A17.447,17.447,0,0,1,1710,926.9c4.36,3.319,8.16-5.8-3.96-8.878Zm47.28,2.8h-4.56v-5.519h8.32a1,1,0,0,0,1.12-.64c-1.64-1.52-4.44-3.679-4.44-3.679l-2.36,3.159h-2.64v-4.959a1.437,1.437,0,0,0,1.48-1.12l-6.2-.6v6.679h-4.8c1-2.119,2.24-4.959,3.36-7.519h15.84a1.054,1.054,0,0,0,1.16-.639c-1.88-1.52-4.88-3.76-4.88-3.76l-2.68,3.28h-8.96c0.44-1.04.84-2,1.16-2.8a1.411,1.411,0,0,0,1.72-.8l-5.84-1.68c-0.4,1.24-1.12,3.2-1.96,5.28h-5.8l0.32,1.119h5.04c-1,2.4-2.08,4.88-3.04,6.719a9.079,9.079,0,0,0-1.76.92l4.32,3,1.76-1.96h5.04v5.519h-12.68l0.36,1.16h12.32V931.7h0.84c2.44,0,3.88-.96,3.88-1.16v-8.318h10.96a1.083,1.083,0,0,0,1.16-.64c-1.88-1.56-4.92-3.719-4.92-3.719Zm1.28-21.8H1746c2.16-1.2,1.96-5.559-5.72-5.2l-0.32.24a11.209,11.209,0,0,1,3.28,4.839l0.24,0.12h-11.64l-5.28-1.88v12.758c0,7.079-.2,14.917-3.68,21.076l0.4,0.32c7.44-5.8,7.84-14.6,7.84-21.436v-9.718h28.8a1.03,1.03,0,0,0,1.12-.64c-1.64-1.52-4.4-3.8-4.4-3.8Z" transform="translate(-1214 -885.531)"/>
  <path id="General_Database_of_Modern_Chinese_Literature"  class="cls-1" d="M1326.01,962.928h-5.04v0.629l1.92,0.17c0.03,1.173.05,2.379,0.05,3.552v0.884a5.668,5.668,0,0,1-1.87.306c-2.72,0-4.52-2.159-4.52-5.8,0-3.756,1.92-5.813,4.52-5.813a3.911,3.911,0,0,1,1.94.459l0.56,2.55h1V957.03a7.152,7.152,0,0,0-3.72-.917,6.224,6.224,0,0,0-6.48,6.56c0,3.909,2.58,6.578,6.41,6.578a8,8,0,0,0,4.06-1.122V967.3c0-1.275.02-2.464,0.05-3.62l1.12-.119v-0.629Zm4,0.816c0.14-2.329,1.24-3.331,2.35-3.331a2.038,2.038,0,0,1,1.95,2.226,0.88,0.88,0,0,1-.97,1.105h-3.33Zm5.93,0.663a3.718,3.718,0,0,0-3.46-4.657,4.466,4.466,0,0,0-4.42,4.742c0,2.991,1.81,4.708,4.38,4.708a3.822,3.822,0,0,0,3.57-2.159l-0.34-.238a3.061,3.061,0,0,1-2.6,1.309c-1.75,0-3.03-1.173-3.08-3.7h5.95Zm11.61,3.807c-0.01-.952-0.03-2.278-0.03-3.212v-1.921c0-2.345-.88-3.331-2.47-3.331a4.537,4.537,0,0,0-3.31,1.716l-0.14-1.529-0.25-.17-2.87,1v0.509l1.42,0.136c0.04,0.782.07,1.428,0.07,2.5V965c0,0.883-.01,2.243-0.05,3.212l-1.32.187v0.544h4.43V968.4l-1.22-.187c-0.02-.952-0.04-2.312-0.04-3.212v-2.873a3.793,3.793,0,0,1,2.47-1.206c1,0,1.48.543,1.48,2.141V965c0,0.934-.02,2.26-0.04,3.212l-1.32.187v0.544h4.43V968.4Zm5.51-4.47c0.14-2.329,1.24-3.331,2.35-3.331a2.038,2.038,0,0,1,1.95,2.226c0,0.714-.18,1.105-0.97,1.105h-3.33Zm5.93,0.663a3.718,3.718,0,0,0-3.46-4.657,4.472,4.472,0,0,0-4.42,4.742c0,2.991,1.82,4.708,4.38,4.708a3.822,3.822,0,0,0,3.57-2.159l-0.34-.238a3.048,3.048,0,0,1-2.6,1.309c-1.75,0-3.02-1.173-3.07-3.7h5.94Zm5.67-4.47-0.26-.17-2.87,1v0.509l1.43,0.136c0.03,0.782.06,1.428,0.06,2.5V965c0,0.883-.01,2.243-0.05,3.212l-1.31.187v0.544h4.78V968.4l-1.58-.238c-0.02-.952-0.03-2.278-0.03-3.161v-1.428a4.674,4.674,0,0,1,1.59-2.566l0.22,0.22a1.717,1.717,0,0,0,1.25.663,1.087,1.087,0,0,0,1.08-1.291,1.393,1.393,0,0,0-1.42-.85c-1.06,0-2.16.918-2.72,2.515Zm11.47,7.155a3.083,3.083,0,0,1-1.99,1,1.3,1.3,0,0,1-1.44-1.445c0-.85.39-1.6,1.88-2.192,0.36-.136.94-0.323,1.55-0.493v3.127Zm3.21,0.731a0.968,0.968,0,0,1-.78.476c-0.39,0-.64-0.272-0.64-1.122V963c0-2.328-.94-3.246-3.01-3.246-2.09,0-3.47.9-3.76,2.362a0.815,0.815,0,0,0,.9.748,1.052,1.052,0,0,0,1.02-1.054l0.29-1.257a3.708,3.708,0,0,1,1-.136c1.28,0,1.77.493,1.77,2.311v0.7c-0.71.17-1.46,0.391-2.04,0.561-2.48.85-3.19,1.682-3.19,2.94a2.219,2.219,0,0,0,2.44,2.278,3.678,3.678,0,0,0,2.84-1.513,1.662,1.662,0,0,0,1.74,1.479,1.75,1.75,0,0,0,1.71-1.037Zm5.26,0.391c-0.02-1.054-.04-2.176-0.04-3.212v-7.088l0.07-2.668-0.25-.136-3.08.731v0.527l1.46,0.136V965c0,1.036-.02,2.158-0.03,3.212l-1.43.187v0.544h4.71V968.4Zm12.8,0.017c-0.02-1.7-.02-3.45-0.02-5.354v-0.595c0-1.784,0-3.484.02-5.167h1.44c2.74,0,4.34,1.955,4.34,5.575,0,3.5-1.58,5.541-4.47,5.541h-1.31Zm-3.71-11.812v0.611l1.69,0.187c0.03,1.666.03,3.366,0.03,5.065v0.612c0,1.887,0,3.6-.03,5.252l-1.69.187v0.612h5.1c3.89,0,6.53-2.3,6.53-6.272s-2.43-6.254-6.19-6.254h-5.44Zm19.55,10.673a3.083,3.083,0,0,1-1.99,1,1.3,1.3,0,0,1-1.44-1.445c0-.85.39-1.6,1.88-2.192,0.36-.136.94-0.323,1.55-0.493v3.127Zm3.21,0.731a0.968,0.968,0,0,1-.78.476c-0.39,0-.64-0.272-0.64-1.122V963c0-2.328-.94-3.246-3.01-3.246-2.09,0-3.47.9-3.76,2.362a0.815,0.815,0,0,0,.9.748,1.052,1.052,0,0,0,1.02-1.054l0.29-1.257a3.708,3.708,0,0,1,1-.136c1.28,0,1.77.493,1.77,2.311v0.7c-0.71.17-1.46,0.391-2.04,0.561-2.48.85-3.19,1.682-3.19,2.94a2.219,2.219,0,0,0,2.44,2.278,3.678,3.678,0,0,0,2.84-1.513,1.662,1.662,0,0,0,1.74,1.479,1.75,1.75,0,0,0,1.71-1.037Zm7.33-.068a1.975,1.975,0,0,1-1.24.527c-0.68,0-1.1-.408-1.1-1.377V960.77h2.41v-0.765h-2.4l0.09-2.635h-1.23l-0.57,2.6-1.65.187v0.612h1.54v4.487c0,0.7-.01,1.138-0.01,1.648a2.006,2.006,0,0,0,2.22,2.3,2.629,2.629,0,0,0,2.28-1.071Zm7.48-.663a3.083,3.083,0,0,1-1.99,1,1.3,1.3,0,0,1-1.44-1.445c0-.85.39-1.6,1.88-2.192,0.36-.136.94-0.323,1.55-0.493v3.127Zm3.21,0.731a0.968,0.968,0,0,1-.78.476c-0.39,0-.64-0.272-0.64-1.122V963c0-2.328-.94-3.246-3.01-3.246-2.09,0-3.47.9-3.76,2.362a0.815,0.815,0,0,0,.9.748,1.052,1.052,0,0,0,1.02-1.054l0.29-1.257a3.708,3.708,0,0,1,1-.136c1.28,0,1.77.493,1.77,2.311v0.7c-0.71.17-1.46,0.391-2.04,0.561-2.48.85-3.19,1.682-3.19,2.94a2.219,2.219,0,0,0,2.44,2.278,3.678,3.678,0,0,0,2.84-1.513,1.662,1.662,0,0,0,1.74,1.479,1.75,1.75,0,0,0,1.71-1.037Zm5.22-6.17a2.953,2.953,0,0,1,2.13-.934c1.39,0,2.38,1.206,2.38,3.756,0,2.736-1.14,3.722-2.45,3.722a2.939,2.939,0,0,1-2.06-.9v-5.643Zm-0.03-3.739,0.05-2.668-0.24-.136-3.04.731v0.527l1.46,0.136V965c0,0.883-.02,2.243-0.03,3.2l-1.35.2v0.544l2.93,0.187,0.2-1.224a3.3,3.3,0,0,0,2.67,1.292c2.28,0,3.82-1.989,3.82-4.793,0-2.958-1.54-4.657-3.6-4.657a3.836,3.836,0,0,0-2.87,1.342v-3.178Zm14.35,9.178a3.1,3.1,0,0,1-1.99,1,1.311,1.311,0,0,1-1.45-1.445c0-.85.39-1.6,1.89-2.192,0.36-.136.93-0.323,1.55-0.493v3.127Zm3.21,0.731a0.981,0.981,0,0,1-.78.476c-0.39,0-.65-0.272-0.65-1.122V963c0-2.328-.93-3.246-3.01-3.246s-3.46.9-3.75,2.362a0.809,0.809,0,0,0,.9.748,1.065,1.065,0,0,0,1.02-1.054l0.29-1.257a3.658,3.658,0,0,1,1-.136c1.27,0,1.77.493,1.77,2.311v0.7c-0.72.17-1.47,0.391-2.04,0.561-2.48.85-3.2,1.682-3.2,2.94a2.228,2.228,0,0,0,2.45,2.278c1.19,0,1.85-.51,2.84-1.513a1.659,1.659,0,0,0,1.73,1.479,1.755,1.755,0,0,0,1.72-1.037Zm5.71-4.385c-1.29-.425-1.73-0.833-1.73-1.632,0-.832.64-1.376,1.8-1.376a2.885,2.885,0,0,1,1.34.34l0.43,1.682h0.85l0.06-1.937a4.892,4.892,0,0,0-2.7-.765c-2.17,0-3.4,1.207-3.4,2.719,0,1.309.9,2.057,2.31,2.567l0.91,0.306c1.27,0.424,1.75.9,1.75,1.665,0,0.918-.72,1.479-2.15,1.479a3.889,3.889,0,0,1-1.51-.289l-0.42-1.836h-0.94v2.091a5.917,5.917,0,0,0,2.94.748c2.43,0,3.72-1.207,3.72-2.771,0-1.24-.71-2.107-2.53-2.719Zm7.7,0.306c0.14-2.329,1.24-3.331,2.35-3.331a2.038,2.038,0,0,1,1.95,2.226c0,0.714-.18,1.105-0.97,1.105h-3.33Zm5.93,0.663a3.718,3.718,0,0,0-3.46-4.657,4.472,4.472,0,0,0-4.42,4.742c0,2.991,1.82,4.708,4.38,4.708a3.822,3.822,0,0,0,3.57-2.159l-0.34-.238a3.048,3.048,0,0,1-2.6,1.309c-1.75,0-3.02-1.173-3.07-3.7h5.94Zm12.48,4.793c2.35,0,4.4-1.649,4.4-4.725A4.421,4.421,0,1,0,1489.04,969.2Zm0-.68c-1.54,0-2.43-1.36-2.43-4.028,0-2.686.89-4.079,2.43-4.079,1.52,0,2.43,1.393,2.43,4.079C1491.47,967.16,1490.56,968.52,1489.04,968.52Zm6.79-8.362v0.612h1.51V965c0,1.07-.02,2.141-0.05,3.212l-1.43.187v0.544h5V968.4l-1.67-.221c-0.02-1.054-.03-2.125-0.03-3.178V960.77h2.48v-0.765h-2.52a6.727,6.727,0,0,1,.65-3.773,1.918,1.918,0,0,1,.63-0.612l0.44,0.442a1.716,1.716,0,0,0,1.39.781,0.96,0.96,0,0,0,1.09-.883,1.7,1.7,0,0,0-1.87-1.037,3.634,3.634,0,0,0-2.7,1.139,5.827,5.827,0,0,0-1.39,3.909Zm28.55-3.128v-0.611h-3.79l-3.87,10.027-4.05-10.027h-3.7v0.611l1.73,0.221-0.03,10.844-1.75.238v0.612h4.28v-0.612l-1.68-.238v-5.711c0-.323-0.07-2.617-0.11-4.283l4.36,10.844h0.79l4.19-10.861-0.04,5.184c-0.02,1.547,0,3.229-.03,4.878l-1.6.187v0.612h5.3v-0.612l-1.68-.187c-0.05-1.666-.05-3.348-0.05-5.031v-0.867c0-1.682,0-3.365.05-5.031Zm7.01,12.17a4.736,4.736,0,1,0-4.42-4.725A4.348,4.348,0,0,0,1531.39,969.2Zm0-.68c-1.55,0-2.43-1.36-2.43-4.028,0-2.686.88-4.079,2.43-4.079,1.51,0,2.43,1.393,2.43,4.079C1533.82,967.16,1532.9,968.52,1531.39,968.52Zm13.41-1.224a2.458,2.458,0,0,1-1.92.9c-1.48,0-2.58-1.071-2.58-3.722,0-2.72,1.2-3.739,2.62-3.739a2.851,2.851,0,0,1,1.88.832V967.3Zm1.8,0.969V957.9l0.09-2.651-0.26-.136-3.09.731v0.527l1.53,0.136v4.436a3.027,3.027,0,0,0-2.46-1.19c-2.32,0-4.05,1.835-4.05,4.793,0,2.8,1.61,4.657,3.86,4.657a3.268,3.268,0,0,0,2.63-1.275l0.12,1.207,3.06-.187V968.4Zm5.55-4.521c0.13-2.329,1.24-3.331,2.34-3.331a2.04,2.04,0,0,1,1.96,2.226,0.88,0.88,0,0,1-.97,1.105h-3.33Zm5.93,0.663a3.722,3.722,0,0,0,.12-1.037,3.41,3.41,0,0,0-3.59-3.62,4.472,4.472,0,0,0-4.42,4.742c0,2.991,1.82,4.708,4.39,4.708a3.822,3.822,0,0,0,3.57-2.159l-0.34-.238a3.074,3.074,0,0,1-2.6,1.309c-1.75,0-3.03-1.173-3.08-3.7h5.95Zm5.66-4.47-0.25-.17-2.88,1v0.509l1.43,0.136c0.03,0.782.07,1.428,0.07,2.5V965c0,0.883-.02,2.243-0.05,3.212l-1.31.187v0.544h4.77V968.4l-1.58-.238c-0.01-.952-0.03-2.278-0.03-3.161v-1.428a4.684,4.684,0,0,1,1.6-2.566l0.22,0.22a1.68,1.68,0,0,0,1.24.663,1.094,1.094,0,0,0,1.09-1.291,1.406,1.406,0,0,0-1.43-.85c-1.05,0-2.16.918-2.72,2.515Zm15.08,8.277c-0.02-.952-0.04-2.278-0.04-3.212v-1.921c0-2.345-.88-3.331-2.46-3.331a4.539,4.539,0,0,0-3.32,1.716l-0.13-1.529-0.26-.17-2.87,1v0.509l1.43,0.136c0.03,0.782.07,1.428,0.07,2.5V965c0,0.883-.02,2.243-0.05,3.212l-1.33.187v0.544h4.44V968.4l-1.23-.187c-0.01-.952-0.03-2.312-0.03-3.212v-2.873a3.753,3.753,0,0,1,2.46-1.206c1.01,0,1.48.543,1.48,2.141V965c0,0.934-.01,2.26-0.03,3.212l-1.33.187v0.544h4.44V968.4Zm18.19-2.72-0.58,2.567a4.442,4.442,0,0,1-1.95.408c-2.64,0-4.49-1.921-4.49-5.779,0-3.824,1.97-5.83,4.52-5.83a3.867,3.867,0,0,1,1.77.408l0.57,2.6h0.99V957.03a7.3,7.3,0,0,0-3.57-.917,6.251,6.251,0,0,0-6.46,6.577,6.151,6.151,0,0,0,6.43,6.561,7.383,7.383,0,0,0,3.75-.952l0.02-2.8h-1Zm12.42,2.72c-0.01-.952-0.03-2.278-0.03-3.212v-1.9c0-2.4-.88-3.348-2.48-3.348a4.519,4.519,0,0,0-3.35,1.75v-3.586l0.05-2.668-0.24-.136-3.04.731v0.527l1.46,0.136V965c0,0.883-.01,2.243-0.03,3.212l-1.36.187v0.544h4.44V968.4l-1.21-.187c-0.02-.952-0.04-2.312-0.04-3.212v-2.89a3.682,3.682,0,0,1,2.5-1.189c0.99,0,1.48.526,1.48,2.141V965c0,0.934-.02,2.26-0.03,3.212l-1.31.187v0.544h4.44V968.4Zm5.72-10.521a1.193,1.193,0,0,0,1.24-1.189,1.253,1.253,0,0,0-2.5,0A1.2,1.2,0,0,0,1615.15,957.693Zm0.98,10.521c-0.01-.952-0.03-2.312-0.03-3.212v-2.533l0.03-2.532-0.23-.17-3.11.969v0.526l1.44,0.136c0.03,0.816.05,1.462,0.05,2.516V965c0,0.883-.02,2.243-0.03,3.212l-1.33.187v0.544h4.44V968.4Zm12.5,0c-0.02-.952-0.04-2.278-0.04-3.212v-1.921c0-2.345-.88-3.331-2.46-3.331a4.539,4.539,0,0,0-3.32,1.716l-0.13-1.529-0.26-.17-2.87,1v0.509l1.43,0.136c0.03,0.782.07,1.428,0.07,2.5V965c0,0.883-.02,2.243-0.05,3.212l-1.33.187v0.544h4.44V968.4l-1.23-.187c-0.01-.952-0.03-2.312-0.03-3.212v-2.873a3.753,3.753,0,0,1,2.46-1.206c1.01,0,1.48.543,1.48,2.141V965c0,0.934-.02,2.26-0.03,3.212l-1.33.187v0.544h4.44V968.4Zm5.51-4.47c0.13-2.329,1.24-3.331,2.34-3.331a2.04,2.04,0,0,1,1.96,2.226,0.88,0.88,0,0,1-.97,1.105h-3.33Zm5.93,0.663a3.722,3.722,0,0,0,.12-1.037,3.41,3.41,0,0,0-3.59-3.62,4.472,4.472,0,0,0-4.42,4.742c0,2.991,1.82,4.708,4.39,4.708a3.822,3.822,0,0,0,3.57-2.159l-0.34-.238a3.074,3.074,0,0,1-2.6,1.309c-1.75,0-3.03-1.173-3.08-3.7h5.95Zm6.24-.969c-1.29-.425-1.74-0.833-1.74-1.632,0-.832.65-1.376,1.81-1.376a2.916,2.916,0,0,1,1.34.34l0.42,1.682h0.85l0.07-1.937a4.916,4.916,0,0,0-2.7-.765c-2.18,0-3.4,1.207-3.4,2.719,0,1.309.9,2.057,2.31,2.567l0.9,0.306c1.28,0.424,1.75.9,1.75,1.665,0,0.918-.71,1.479-2.14,1.479a3.853,3.853,0,0,1-1.51-.289l-0.43-1.836h-0.93v2.091a5.89,5.89,0,0,0,2.94.748c2.43,0,3.72-1.207,3.72-2.771,0-1.24-.71-2.107-2.53-2.719Zm7.7,0.306c0.14-2.329,1.24-3.331,2.34-3.331a2.04,2.04,0,0,1,1.96,2.226,0.88,0.88,0,0,1-.97,1.105h-3.33Zm5.93,0.663a3.718,3.718,0,0,0-3.47-4.657,4.472,4.472,0,0,0-4.42,4.742c0,2.991,1.82,4.708,4.39,4.708a3.822,3.822,0,0,0,3.57-2.159l-0.34-.238a3.061,3.061,0,0,1-2.6,1.309c-1.75,0-3.03-1.173-3.08-3.7h5.95Zm16.61,0.969-0.66,2.821h-4.13c-0.02-1.683-.02-3.348-0.02-4.81V962.18c0-1.631,0-3.3.02-4.963l1.75-.187v-0.611h-5.46v0.611l1.68,0.187c0.04,1.666.04,3.349,0.04,5.031v1.037c0,1.547,0,3.2-.04,4.861l-1.66.187-0.02.612h9.37l0.08-3.569h-0.95Zm5.63-7.683a1.193,1.193,0,0,0,1.24-1.189,1.253,1.253,0,0,0-2.5,0A1.2,1.2,0,0,0,1682.18,957.693Zm0.98,10.521c-0.01-.952-0.03-2.312-0.03-3.212v-2.533l0.03-2.532-0.23-.17-3.11.969v0.526l1.44,0.136c0.03,0.816.05,1.462,0.05,2.516V965c0,0.883-.02,2.243-0.03,3.212l-1.33.187v0.544h4.44V968.4Zm8.74-.459a1.975,1.975,0,0,1-1.24.527c-0.68,0-1.1-.408-1.1-1.377V960.77h2.41v-0.765h-2.4l0.09-2.635h-1.23l-0.57,2.6-1.65.187v0.612h1.54v4.487c0,0.7-.01,1.138-0.01,1.648a2.006,2.006,0,0,0,2.22,2.3,2.617,2.617,0,0,0,2.28-1.071Zm4.15-4.011c0.14-2.329,1.24-3.331,2.35-3.331a2.038,2.038,0,0,1,1.95,2.226,0.88,0.88,0,0,1-.97,1.105h-3.33Zm5.93,0.663a3.718,3.718,0,0,0-3.47-4.657,4.465,4.465,0,0,0-4.41,4.742c0,2.991,1.81,4.708,4.38,4.708a3.822,3.822,0,0,0,3.57-2.159l-0.34-.238a3.061,3.061,0,0,1-2.6,1.309c-1.75,0-3.03-1.173-3.08-3.7h5.95Zm5.66-4.47-0.25-.17-2.87,1v0.509l1.42,0.136c0.04,0.782.07,1.428,0.07,2.5V965c0,0.883-.02,2.243-0.05,3.212l-1.31.187v0.544h4.78V968.4l-1.58-.238c-0.02-.952-0.04-2.278-0.04-3.161v-1.428a4.684,4.684,0,0,1,1.6-2.566l0.22,0.22a1.7,1.7,0,0,0,1.24.663,1.094,1.094,0,0,0,1.09-1.291,1.4,1.4,0,0,0-1.43-.85c-1.05,0-2.16.918-2.72,2.515Zm11.48,7.155a3.083,3.083,0,0,1-1.99,1,1.311,1.311,0,0,1-1.45-1.445c0-.85.4-1.6,1.89-2.192,0.36-.136.94-0.323,1.55-0.493v3.127Zm3.21,0.731a0.981,0.981,0,0,1-.78.476c-0.39,0-.65-0.272-0.65-1.122V963c0-2.328-.93-3.246-3.01-3.246s-3.46.9-3.75,2.362a0.815,0.815,0,0,0,.9.748,1.059,1.059,0,0,0,1.02-1.054l0.29-1.257a3.658,3.658,0,0,1,1-.136c1.27,0,1.77.493,1.77,2.311v0.7c-0.72.17-1.46,0.391-2.04,0.561-2.48.85-3.2,1.682-3.2,2.94a2.228,2.228,0,0,0,2.45,2.278c1.19,0,1.85-.51,2.84-1.513a1.659,1.659,0,0,0,1.73,1.479,1.755,1.755,0,0,0,1.72-1.037Zm7.33-.068a2.019,2.019,0,0,1-1.24.527,1.119,1.119,0,0,1-1.11-1.377V960.77h2.42v-0.765h-2.4l0.08-2.635h-1.22l-0.58,2.6-1.65.187v0.612h1.55v4.487c0,0.7-.02,1.138-0.02,1.648a2.009,2.009,0,0,0,2.23,2.3,2.629,2.629,0,0,0,2.28-1.071Zm10.74,0.493v-5.541l0.05-2.668-0.19-.187-2.94.357v0.51l1.3,0.255-0.04,5.812a3.436,3.436,0,0,1-2.41,1.156c-0.99,0-1.51-.544-1.51-2.159v-3.076l0.06-2.668-0.17-.187-2.97.34v0.527l1.31,0.255-0.05,4.809c-0.04,2.516.93,3.417,2.51,3.417a4.341,4.341,0,0,0,3.27-1.8l0.13,1.717,2.87-.17V968.4Zm6.56-8.311-0.25-.17-2.87,1v0.509l1.42,0.136c0.04,0.782.07,1.428,0.07,2.5V965c0,0.883-.01,2.243-0.05,3.212l-1.31.187v0.544h4.78V968.4l-1.58-.238c-0.02-.952-0.04-2.278-0.04-3.161v-1.428a4.684,4.684,0,0,1,1.6-2.566l0.22,0.22a1.7,1.7,0,0,0,1.24.663,1.094,1.094,0,0,0,1.09-1.291,1.4,1.4,0,0,0-1.43-.85c-1.05,0-2.16.918-2.72,2.515Zm8.15,3.807c0.13-2.329,1.24-3.331,2.34-3.331a2.04,2.04,0,0,1,1.96,2.226,0.88,0.88,0,0,1-.97,1.105h-3.33Zm5.93,0.663a3.722,3.722,0,0,0,.12-1.037,3.41,3.41,0,0,0-3.59-3.62,4.472,4.472,0,0,0-4.42,4.742c0,2.991,1.82,4.708,4.39,4.708a3.822,3.822,0,0,0,3.57-2.159l-0.34-.238a3.074,3.074,0,0,1-2.6,1.309c-1.75,0-3.03-1.173-3.08-3.7h5.95Z" transform="translate(-1214 -885.531)"/>
  <path id="形状_6" class="cls-1" d="M1275.34,885.516s-25.3-.153-25.3,16.1,0.77,47.543.77,47.543S1245.83,959.9,1237,959.9s-16.1-4.534-16.1-13.036c0-4.126,3.8-11.5,9.2-11.5s9.2,3.323,9.2,7.668a5.2,5.2,0,0,1-4.6,5.368c-0.76,0-4.6-1.048-4.6-2.3-1.93.051-2.63-.438-3.83,0.767s-0.31,5,1.53,6.135a12.8,12.8,0,0,0,6.14,1.533c1.67,0,8.63-1.508,10.73-6.134V903.92s-2.55-13.036-15.33-13.036S1214,903.92,1214,903.92v42.941s4.57,18.4,26.84,18.4c26.9,0.249,27.6-17.637,27.6-17.637V895.485S1272.16,885.516,1275.34,885.516Z" transform="translate(-1214 -885.531)"/>
  <path id="形状_7" class="cls-1" d="M1283.78,895.485s-9.97,1.559-9.97,8.435,0.44,42.956,0,45.242c-2.37,8.584-7.49,14.632-19.94,17.636-14.13,3.412-27.55-1.256-34.5-7.668-0.46,2.394,9.03,16,29.14,16.87,23.8-.633,35.31-19.392,35.27-30.672V895.485Z" transform="translate(-1214 -885.531)"/>
</svg>
